<svg width="537" height="663" viewBox="0 0 537 663" fill="none" xmlns="http://www.w3.org/2000/svg">
<g filter="url(#filter0_d_928_364)">
<g filter="url(#filter1_d_928_364)">
<path d="M182.007 393.797C194.192 403.283 197.707 419.21 192.434 432.443C197.824 419.21 194.192 403.283 182.007 393.797L148.733 368.033L112.53 403.986L51.0208 307.604C47.2717 301.632 54.6528 294.957 60.1594 299.29L182.007 393.797Z" fill="#D6E1FE"/>
<path d="M113.115 403.049L51.6058 306.667C50.0827 304.208 50.317 301.632 51.7229 299.758L132.564 383.608L113.115 403.049Z" fill="#91A2C6"/>
<path d="M182.007 393.914C194.192 403.283 197.824 419.327 192.435 432.56C192.083 433.38 191.732 434.2 191.263 435.02C191.146 435.254 191.029 435.488 190.912 435.839C190.56 436.542 190.092 437.245 189.623 437.83C189.389 438.182 189.154 438.533 188.92 438.884C188.686 439.236 188.334 439.587 188.1 439.938C187.631 440.524 187.162 441.227 186.694 441.812C186.577 441.929 186.577 441.929 186.46 442.046C185.639 442.866 184.819 443.803 183.999 444.506C183.179 445.325 182.242 445.911 181.422 446.614C181.187 446.848 180.836 446.965 180.601 447.199C179.898 447.668 179.313 448.136 178.61 448.487C178.258 448.721 178.024 448.839 177.672 448.956C176.969 449.424 176.149 449.775 175.329 450.127C175.095 450.244 174.861 450.361 174.626 450.478C173.572 450.947 172.517 451.298 171.463 451.649C171.346 451.649 171.229 451.649 171.111 451.766C170.174 452.001 169.237 452.235 168.3 452.469C168.065 452.469 167.714 452.586 167.479 452.586C166.659 452.703 165.839 452.82 165.019 452.937C164.785 452.937 164.433 452.937 164.199 453.055C163.144 453.172 162.207 453.172 161.153 453.172C161.036 453.172 161.036 453.172 160.918 453.172C159.864 453.172 158.692 453.055 157.638 452.937C157.404 452.937 157.169 452.82 157.052 452.82C156.232 452.703 155.295 452.586 154.475 452.352C154.24 452.235 153.889 452.235 153.654 452.118C152.834 451.883 152.014 451.649 151.311 451.415C151.077 451.298 150.843 451.298 150.608 451.181C149.554 450.829 148.616 450.361 147.562 449.893C146.625 449.424 145.687 448.956 144.75 448.37C144.516 448.253 144.164 448.019 143.93 447.785C143.579 447.55 143.227 447.316 142.876 447.082C142.641 446.848 142.407 446.731 142.173 446.496C141.821 446.262 141.47 445.911 141.118 445.677C140.532 445.208 140.064 444.74 139.478 444.271C139.126 444.037 138.892 443.686 138.541 443.452C137.955 442.866 137.369 442.28 136.9 441.578C136.666 441.344 136.432 441.109 136.315 440.875C135.612 439.938 134.909 439.001 134.206 437.947L112.648 404.22L148.851 368.267L182.007 393.914Z" fill="#121544"/>
<path d="M486.158 417.922C486.276 402.58 475.848 389.815 462.14 385.951C475.965 389.815 486.276 402.58 486.158 417.922L485.924 459.964L435.311 466.288L473.271 574.146C475.614 580.821 485.456 579.182 485.456 572.038L486.158 417.922Z" fill="#D6E1FE"/>
<path d="M331.184 609H283.382C223.279 609 174.071 559.814 174.071 499.736V415.769C174.071 389.653 195.394 368.339 221.521 368.339H391.991C418.118 368.339 439.441 389.653 439.441 415.769V500.79C439.441 560.399 390.702 609 331.184 609Z" fill="#D6E1FE"/>
<path opacity="0.69" d="M436.599 435.605V470.504C436.599 543.112 377.198 602.487 304.558 602.487C231.215 602.487 171.111 542.527 171.111 469.099V435.605H436.599Z" fill="#91A2C6"/>
<path d="M436.365 466.522L474.325 574.38C475.262 577.073 477.488 578.479 479.832 578.479L463.663 463.125L436.365 466.522Z" fill="#91A2C6"/>
<path d="M486.159 417.921C486.276 402.58 475.966 389.815 462.14 385.95C461.32 385.716 460.383 385.482 459.446 385.365C459.211 385.365 458.86 385.248 458.626 385.131C457.806 385.014 457.103 384.896 456.282 384.896C455.814 384.896 455.462 384.779 454.994 384.779C454.525 384.779 454.056 384.779 453.588 384.779C452.768 384.779 452.065 384.779 451.245 384.779C451.127 384.779 451.01 384.779 451.01 384.779C449.839 384.896 448.667 385.014 447.495 385.131C447.495 385.131 447.495 385.131 447.378 385.131C446.207 385.365 445.152 385.599 444.098 385.833C443.746 385.95 443.395 386.068 443.16 386.185C442.34 386.419 441.637 386.653 440.817 387.004C440.466 387.121 440.114 387.239 439.88 387.356C439.06 387.707 438.357 388.058 437.537 388.527C437.302 388.644 437.068 388.761 436.834 388.878C435.896 389.464 434.959 390.049 434.022 390.635C433.905 390.752 433.787 390.752 433.787 390.869C432.967 391.455 432.264 392.04 431.561 392.626C431.327 392.86 431.093 392.977 430.976 393.211C430.39 393.797 429.804 394.382 429.218 394.968C428.984 395.202 428.867 395.319 428.632 395.553C427.929 396.256 427.344 397.076 426.758 397.896L426.641 398.013C425.938 398.95 425.352 399.769 424.766 400.706C424.649 400.94 424.532 401.058 424.415 401.292C423.946 401.994 423.594 402.814 423.243 403.634C423.126 403.868 423.009 404.219 422.892 404.454C422.54 405.156 422.306 405.976 421.954 406.796C421.837 407.03 421.72 407.264 421.72 407.499C421.368 408.553 421.134 409.607 420.9 410.661C420.665 411.715 420.548 412.769 420.431 413.822C420.431 414.174 420.314 414.525 420.314 414.759C420.314 415.228 420.197 415.579 420.197 416.048C420.197 416.399 420.197 416.633 420.197 416.984C420.197 417.453 420.197 417.921 420.197 418.273C420.197 418.975 420.314 419.678 420.314 420.381C420.314 420.849 420.431 421.2 420.431 421.669C420.548 422.489 420.665 423.308 420.9 424.128C421.017 424.479 421.017 424.714 421.134 425.065C421.368 426.236 421.72 427.407 422.071 428.461L435.311 466.288L485.924 459.964L486.159 417.921Z" fill="#121544"/>
<path d="M306.666 584.568H278.43C233.323 584.568 196.769 548.03 196.769 502.943V479.286C196.769 462.54 210.359 448.838 227.23 448.838H351.304C369.699 448.838 384.695 463.828 384.695 482.214V506.69C384.695 549.669 349.781 584.568 306.666 584.568Z" fill="#121544"/>
<path d="M477.136 285.119C477.136 205.133 412.346 140.371 332.559 140.371H270.464C191.029 140.371 126.59 204.899 126.59 284.416V294.019H477.253V285.119H477.136Z" fill="#D6E1FE"/>
<path opacity="0.69" d="M477.135 294.019H126.471V306.901C126.471 344.845 157.167 375.527 195.128 375.527H409.298C446.79 375.527 477.252 345.079 477.252 307.604L477.135 294.019Z" fill="#91A2C6"/>
<path d="M363.843 335.945H207.081C179.899 335.945 157.99 313.929 157.99 286.876V252.212C157.99 195.062 204.386 148.687 261.561 148.687H308.308C365.834 148.687 412.464 195.297 412.464 252.798V287.462C412.464 314.28 390.672 335.945 363.843 335.945Z" fill="#121544"/>
<path opacity="0.4" d="M223.251 277.273C242.534 277.273 258.166 259.026 258.166 236.518C258.166 214.01 242.534 195.764 223.251 195.764C203.969 195.764 188.337 214.01 188.337 236.518C188.337 259.026 203.969 277.273 223.251 277.273Z" fill="#69F9A7"/>
<path opacity="0.39" d="M338.771 242.96L364.312 250.338C371.225 252.329 372.748 261.112 366.772 265.094C361.149 268.841 353.65 269.544 344.16 269.193C328.461 268.724 296.241 267.787 291.32 250.338C285.228 228.79 311.121 223.403 334.202 211.692C340.763 208.413 346.503 206.656 351.659 206.773C363.843 207.007 367.475 222.232 356.931 228.321L338.302 238.978C336.662 240.032 336.896 242.374 338.771 242.96Z" fill="#69F9A7"/>
<path opacity="0.39" d="M338.771 242.96L364.312 250.338C371.225 252.329 372.748 261.112 366.772 265.094C361.149 268.841 353.65 269.544 344.16 269.193C328.461 268.724 296.241 267.787 291.32 250.338C285.228 228.79 311.121 223.403 334.202 211.692C340.763 208.413 346.503 206.656 351.659 206.773C363.843 207.007 367.475 222.232 356.931 228.321L338.302 238.978C336.662 240.032 336.896 242.374 338.771 242.96Z" fill="#69F9A7"/>
<path opacity="0.39" d="M338.771 242.96L364.312 250.338C371.225 252.329 372.748 261.112 366.772 265.094C361.149 268.841 353.65 269.544 344.16 269.193C328.461 268.724 296.241 267.787 291.32 250.338C285.228 228.79 311.121 223.403 334.202 211.692C340.763 208.413 346.503 206.656 351.659 206.773C363.843 207.007 367.475 222.232 356.931 228.321L338.302 238.978C336.662 240.032 336.896 242.374 338.771 242.96Z" fill="#69F9A7"/>
<path opacity="0.39" d="M338.771 242.96L364.312 250.338C371.225 252.329 372.748 261.112 366.772 265.094C361.149 268.841 353.65 269.544 344.16 269.193C328.461 268.724 296.241 267.787 291.32 250.338C285.228 228.79 311.121 223.403 334.202 211.692C340.763 208.413 346.503 206.656 351.659 206.773C363.843 207.007 367.475 222.232 356.931 228.321L338.302 238.978C336.662 240.032 336.896 242.374 338.771 242.96Z" fill="#69F9A7"/>
<path opacity="0.51" d="M334.436 436.073H243.167C238.129 436.073 234.146 431.974 234.146 427.056V423.074C234.146 418.038 238.246 414.057 243.167 414.057H334.436C339.473 414.057 343.457 418.155 343.457 423.074V427.056C343.457 431.974 339.356 436.073 334.436 436.073Z" fill="#69F9A7"/>
<path opacity="0.51" d="M334.436 436.073H243.167C238.129 436.073 234.146 431.974 234.146 427.056V423.074C234.146 418.038 238.246 414.057 243.167 414.057H334.436C339.473 414.057 343.457 418.155 343.457 423.074V427.056C343.457 431.974 339.356 436.073 334.436 436.073Z" fill="#69F9A7"/>
<path opacity="0.51" d="M334.436 436.073H243.167C238.129 436.073 234.146 431.974 234.146 427.056V423.074C234.146 418.038 238.246 414.057 243.167 414.057H334.436C339.473 414.057 343.457 418.155 343.457 423.074V427.056C343.457 431.974 339.356 436.073 334.436 436.073Z" fill="#69F9A7"/>
<path opacity="0.51" d="M334.436 436.073H243.167C238.129 436.073 234.146 431.974 234.146 427.056V423.074C234.146 418.038 238.246 414.057 243.167 414.057H334.436C339.473 414.057 343.457 418.155 343.457 423.074V427.056C343.457 431.974 339.356 436.073 334.436 436.073Z" fill="#69F9A7"/>
<path fill-rule="evenodd" clip-rule="evenodd" d="M157.402 176.675C159.862 136.507 166.072 73.7357 178.374 63.313C235.314 35.9093 378.368 42.4674 436.363 72.9159C447.493 78.6543 454.289 150.911 452.883 191.197C434.02 172.576 406.838 158.992 375.908 150.677C353.647 144.704 329.277 141.191 304.674 140.488C279.953 139.786 255.114 141.659 232.268 146.344C203.798 151.965 177.788 162.036 157.402 176.675Z" fill="#121544"/>
<path fill-rule="evenodd" clip-rule="evenodd" d="M158.223 160.748C178.492 148.1 204.502 139.317 232.972 134.399C255.818 130.417 280.656 128.777 305.377 129.597C329.981 130.417 354.468 133.462 376.611 138.849C407.542 146.344 434.723 158.289 453.704 174.684C453.586 180.423 452.766 203.025 452.18 207.944C403.09 127.138 228.637 115.075 156.7 193.071C156.934 188.503 157.871 165.667 158.223 160.748Z" fill="#F3F7FF"/>
<path d="M291.202 121.868C287.218 121.751 284.055 118.12 284.172 113.904C284.289 109.688 287.687 106.292 291.788 106.409C295.888 106.526 298.934 110.157 298.817 114.373C298.7 118.589 295.302 121.985 291.202 121.868ZM291.67 110.157C289.562 110.04 287.921 111.796 287.804 114.021C287.687 116.246 289.327 118.003 291.436 118.12C293.545 118.237 295.185 116.481 295.302 114.256C295.302 112.03 293.779 110.157 291.67 110.157Z" fill="#F3F7FF"/>
<path d="M314.281 121.868C310.298 121.751 307.135 118.12 307.252 113.904C307.369 109.688 310.767 106.292 314.867 106.409C318.851 106.526 322.014 110.157 321.897 114.373C321.663 118.589 318.265 121.985 314.281 121.868ZM314.633 110.157C312.524 110.04 310.884 111.796 310.767 114.021C310.649 116.246 312.29 118.003 314.399 118.12C316.507 118.237 318.148 116.481 318.265 114.256C318.382 112.03 316.742 110.157 314.633 110.157Z" fill="#F3F7FF"/>
<path fill-rule="evenodd" clip-rule="evenodd" d="M274.214 95.5178C282.064 87.7886 292.608 83.2213 304.09 83.5726C315.572 83.9239 325.765 89.311 333.029 97.5087C336.661 101.608 339.473 106.526 341.464 111.796C344.393 107.463 348.143 103.833 352.243 101.022C360.913 95.0494 371.692 92.473 382.588 94.8152L383.057 94.9323C394.07 97.3916 403.208 104.418 408.832 113.787C412.23 119.408 414.456 125.966 415.159 132.876C418.088 130.534 421.134 128.543 424.532 127.02C431.561 123.858 439.411 122.687 447.144 123.975C447.612 127.957 447.964 132.056 448.315 136.155C441.637 134.398 434.842 134.984 428.749 137.794C422.423 140.605 416.916 145.758 413.519 152.667C410.004 151.145 406.372 149.623 402.74 148.217C403.208 146.929 403.56 145.641 403.794 144.353C405.552 135.686 403.911 127.137 399.693 120.228C395.593 113.436 388.915 108.283 380.831 106.409H380.713C372.512 104.535 364.545 106.409 357.984 110.859C351.54 115.309 346.619 122.336 344.862 131.002V131.119C344.745 131.939 344.511 132.759 344.393 133.578C340.527 132.993 336.661 132.524 332.677 132.056V131.588V131.119V130.651V130.182V129.714V129.245V128.777V128.426V128.074V127.723V127.372L332.56 126.552V126.201V125.849L332.443 125.498L332.326 125.147L332.209 124.795L332.091 124.444L331.974 124.093C330.92 118.823 328.577 114.021 325.413 110.157L325.179 109.805L324.71 109.22L324.476 108.985C319.087 102.896 311.588 99.0311 303.153 98.6798C294.717 98.3284 286.867 101.725 281.126 107.463L280.892 107.697L280.423 108.283L280.189 108.517C276.791 112.264 274.214 116.832 272.691 121.985L272.574 122.336L272.456 122.687L272.339 123.039L272.222 123.39L272.105 123.741L271.988 124.093L271.871 124.444L271.753 125.264L271.636 125.615L271.519 125.966V126.318V126.669V127.02V127.489V127.957V128.426V128.894V129.363V129.831C267.536 130.065 263.669 130.299 259.686 130.534C259.686 129.714 259.569 128.894 259.451 127.957V127.84C258.28 119.174 253.945 111.796 247.853 106.877C241.76 101.959 233.793 99.6166 225.592 100.905H225.475C217.273 102.193 210.361 106.877 205.674 113.318C200.988 119.877 198.762 128.309 199.934 137.092C200.168 138.497 200.402 139.785 200.754 141.073C197.005 142.245 193.255 143.416 189.623 144.821C186.694 137.794 181.656 132.29 175.447 129.011C169.589 125.849 162.793 124.678 156.115 126.083C156.701 122.102 157.404 118.003 158.107 114.021C165.957 113.318 173.689 114.958 180.485 118.588C183.648 120.345 186.694 122.453 189.389 125.029C190.561 118.237 193.255 111.913 197.005 106.409C203.331 97.5087 212.821 91.0676 224.069 89.311L224.537 89.1939C235.551 87.6714 246.095 90.9505 254.414 97.5087C258.397 100.671 261.795 104.535 264.489 109.103C267.067 103.95 270.23 99.3824 274.214 95.5178Z" fill="#F3F7FF"/>
<path d="M365.718 130.066C365.249 130.066 364.898 129.948 364.429 129.948C360.563 129.012 358.103 125.03 358.923 120.814C359.743 116.715 363.609 114.022 367.476 114.958C369.35 115.427 370.99 116.598 372.045 118.237C373.099 119.994 373.451 121.985 372.982 123.976C372.279 127.606 369.116 130.183 365.718 130.066ZM366.07 118.472C364.312 118.355 362.789 119.643 362.32 121.517C361.852 123.625 363.141 125.732 365.132 126.084C367.124 126.552 368.999 125.147 369.467 123.039C369.936 120.931 368.647 118.94 366.655 118.472C366.538 118.472 366.304 118.472 366.07 118.472Z" fill="#F3F7FF"/>
<path d="M387.742 136.155C387.273 136.155 386.922 136.038 386.453 136.038C384.578 135.57 382.938 134.399 381.884 132.759C380.829 131.003 380.478 129.012 380.946 127.021C381.766 122.922 385.633 120.229 389.499 121.165C393.365 121.985 395.826 126.084 395.006 130.3C394.303 133.696 391.139 136.273 387.742 136.155ZM388.093 124.562C386.336 124.444 384.813 125.733 384.344 127.606C384.11 128.66 384.344 129.714 384.813 130.534C385.398 131.354 386.101 132.057 387.156 132.174C389.148 132.642 391.022 131.237 391.491 129.129C391.959 127.021 390.671 124.913 388.679 124.562C388.562 124.562 388.328 124.562 388.093 124.562Z" fill="#F3F7FF"/>
<path d="M435.544 157.938C434.724 157.938 433.904 157.704 433.084 157.352C429.335 155.713 427.577 151.263 429.1 147.281C430.624 143.299 434.841 141.425 438.591 142.948C440.348 143.768 441.754 145.173 442.574 147.164C443.277 149.037 443.394 151.145 442.574 153.136C441.871 155.01 440.465 156.532 438.591 157.352C437.653 157.821 436.599 157.938 435.544 157.938ZM436.013 146.227C434.49 146.227 432.967 147.164 432.381 148.686C431.561 150.677 432.498 153.019 434.373 153.839C435.31 154.19 436.364 154.19 437.185 153.839C438.122 153.371 438.825 152.668 439.176 151.614C439.528 150.56 439.528 149.506 439.176 148.569C438.825 147.632 438.122 146.812 437.185 146.461C436.833 146.344 436.364 146.227 436.013 146.227Z" fill="#F3F7FF"/>
<path d="M239.299 125.616C237.893 125.616 236.37 125.03 235.198 124.093C233.675 122.922 232.621 121.048 232.386 119.058C232.152 117.067 232.621 114.959 233.792 113.319C234.964 111.68 236.604 110.626 238.596 110.274C242.579 109.689 246.211 112.617 246.797 116.715C247.383 120.931 244.571 124.796 240.705 125.381C240.119 125.616 239.767 125.616 239.299 125.616ZM239.064 114.139C237.073 114.49 235.667 116.364 235.901 118.589C236.135 120.697 238.01 122.22 240.002 121.868C241.993 121.517 243.399 119.643 243.165 117.418C242.931 115.31 241.056 113.788 239.064 114.139Z" fill="#F3F7FF"/>
<path d="M216.804 130.182C213.407 130.065 210.478 127.372 209.892 123.624C209.306 119.408 212.118 115.543 215.984 114.958C219.85 114.372 223.6 117.3 224.068 121.399C224.654 125.615 221.842 129.48 217.976 130.065C217.742 130.182 217.273 130.182 216.804 130.182ZM217.273 118.588C217.039 118.588 216.804 118.588 216.687 118.588C214.695 118.94 213.289 120.813 213.524 123.039C213.758 125.146 215.633 126.669 217.624 126.318C219.616 125.966 221.022 124.092 220.788 121.867C220.553 120.111 219.03 118.705 217.273 118.588Z" fill="#F3F7FF"/>
<path d="M167.594 148.569C166.54 148.569 165.485 148.217 164.548 147.749C162.79 146.812 161.502 145.173 160.916 143.299C159.627 139.2 161.736 134.867 165.602 133.462C169.469 132.173 173.569 134.281 174.858 138.38C176.147 142.479 174.038 146.812 170.172 148.217C169.351 148.452 168.414 148.686 167.594 148.569ZM168.063 136.858C167.594 136.858 167.242 136.858 166.774 137.092C164.782 137.795 163.728 140.02 164.431 142.128C164.782 143.182 165.368 144.002 166.305 144.47C167.242 144.938 168.18 145.056 169.117 144.704C171.109 144.002 172.163 141.776 171.46 139.668C170.992 138.029 169.586 136.975 168.063 136.858Z" fill="#F3F7FF"/>
<path d="M357.043 215.087L302.915 244.482L359.152 263.22" stroke="#EAE4F4" stroke-width="8" stroke-miterlimit="10" stroke-linecap="round" stroke-linejoin="round"/>
<path d="M357.043 215.087L302.915 244.482L359.152 263.22" stroke="#EAE4F4" stroke-width="8" stroke-miterlimit="10" stroke-linecap="round" stroke-linejoin="round"/>
<path d="M357.043 215.087L302.915 244.482L359.152 263.22" stroke="#EAE4F4" stroke-width="8" stroke-miterlimit="10" stroke-linecap="round" stroke-linejoin="round"/>
<path d="M304.558 296.596C305.73 295.424 304.441 293.434 303.152 294.136C295.302 298.235 282.883 303.622 273.276 303.856C263.434 304.091 250.195 298.586 241.994 294.605C240.588 293.902 239.416 296.01 240.588 297.064C248.086 304.208 261.091 314.865 272.69 314.748C284.172 314.748 297.06 303.973 304.558 296.596Z" fill="#DFE7F4"/>
</g>
<ellipse cx="223.677" cy="236.539" rx="35.4099" ry="41.0305" fill="#69F9A7"/>
</g>
<defs>
<filter id="filter0_d_928_364" x="0" y="0" width="536.16" height="663" filterUnits="userSpaceOnUse" color-interpolation-filters="sRGB">
<feFlood flood-opacity="0" result="BackgroundImageFix"/>
<feColorMatrix in="SourceAlpha" type="matrix" values="0 0 0 0 0 0 0 0 0 0 0 0 0 0 0 0 0 0 127 0" result="hardAlpha"/>
<feOffset dy="4"/>
<feGaussianBlur stdDeviation="25"/>
<feComposite in2="hardAlpha" operator="out"/>
<feColorMatrix type="matrix" values="0 0 0 0 0 0 0 0 0 0 0 0 0 0 0 0 0 0 0.25 0"/>
<feBlend mode="normal" in2="BackgroundImageFix" result="effect1_dropShadow_928_364"/>
<feBlend mode="normal" in="SourceGraphic" in2="effect1_dropShadow_928_364" result="shape"/>
</filter>
<filter id="filter1_d_928_364" x="0" y="0" width="536.16" height="663" filterUnits="userSpaceOnUse" color-interpolation-filters="sRGB">
<feFlood flood-opacity="0" result="BackgroundImageFix"/>
<feColorMatrix in="SourceAlpha" type="matrix" values="0 0 0 0 0 0 0 0 0 0 0 0 0 0 0 0 0 0 127 0" result="hardAlpha"/>
<feOffset dy="4"/>
<feGaussianBlur stdDeviation="25"/>
<feComposite in2="hardAlpha" operator="out"/>
<feColorMatrix type="matrix" values="0 0 0 0 0 0 0 0 0 0 0 0 0 0 0 0 0 0 0.25 0"/>
<feBlend mode="normal" in2="BackgroundImageFix" result="effect1_dropShadow_928_364"/>
<feBlend mode="normal" in="SourceGraphic" in2="effect1_dropShadow_928_364" result="shape"/>
</filter>
</defs>
</svg>
