<svg width="28" height="30" viewBox="0 0 28 30" fill="none" xmlns="http://www.w3.org/2000/svg">
    <path
        d="M13.6641 28.1462C13.0212 29.1808 12.1445 29.7628 11.0633 29.7628C10.0113 29.7628 9.16388 29.2778 8.37489 28.1462L1.4493 18.8348C0.981747 18.1559 0.71875 17.4446 0.71875 16.6686C0.71875 15.0521 1.82918 13.7912 3.26106 13.7912C4.13771 13.7912 4.83904 14.1468 5.54037 15.1491L10.9756 22.8116L22.5183 2.31358C23.132 1.21432 23.921 0.697021 24.7976 0.697021C26.171 0.697021 27.4568 1.76395 27.4568 3.34818C27.4568 4.0918 27.1061 4.86775 26.7263 5.5467L13.6641 28.1462Z"
        fill="#007AFF" />
</svg>