<svg width="28" height="30" viewBox="0 0 28 30" fill="none" xmlns="http://www.w3.org/2000/svg">
    <path
        d="M13.2812 28.1462C12.6384 29.1808 11.7617 29.7628 10.6805 29.7628C9.62851 29.7628 8.78107 29.2778 7.99208 28.1462L1.06649 18.8348C0.598935 18.1559 0.335938 17.4446 0.335938 16.6686C0.335938 15.0521 1.44637 13.7912 2.87824 13.7912C3.7549 13.7912 4.45623 14.1468 5.15755 15.1491L10.5928 22.8116L22.1355 2.31358C22.7491 1.21432 23.5381 0.697021 24.4148 0.697021C25.7882 0.697021 27.074 1.76395 27.074 3.34818C27.074 4.0918 26.7233 4.86775 26.3434 5.5467L13.2812 28.1462Z"
        fill="url(#paint0_linear_186_82)" />
    <defs>
        <linearGradient id="paint0_linear_186_82" x1="14.0015" y1="5.49976" x2="14.0015" y2="26.9998"
            gradientUnits="userSpaceOnUse">
            <stop stop-color="#FF9500" />
            <stop offset="1" stop-color="#C284E9" />
        </linearGradient>
    </defs>
</svg>