<svg width="207" height="176" viewBox="0 0 207 176" fill="none" xmlns="http://www.w3.org/2000/svg">
    <path d="M88.0249 175.229C99.7227 175.229 111.081 172.867 121.508 168.479C117.524 164.176 114.472 159.114 112.268 153.714C104.724 156.499 96.5863 158.102 88.0249 158.102C49.0322 158.102 17.7533 126.885 17.7533 88.0742C17.7533 49.2637 48.9474 18.131 87.9401 18.131C123.203 18.131 152.278 43.7797 157.364 77.4435C162.619 76.5998 169.57 76.8529 174.911 78.2028C169.909 35.0051 132.527 0.919434 87.9401 0.919434C39.9622 0.919434 0.460938 40.4048 0.460938 88.0742C0.460938 135.828 40.047 175.229 88.0249 175.229ZM45.1329 98.5361H87.9401C91.7546 98.5361 94.6367 95.5832 94.6367 91.8708V36.5238C94.6367 32.8115 91.7546 29.8585 87.9401 29.8585C84.2104 29.8585 81.2435 32.8115 81.2435 36.5238V85.2056H45.1329C41.3185 85.2056 38.4364 88.0742 38.4364 91.8708C38.4364 95.5832 41.3185 98.5361 45.1329 98.5361ZM163.213 175.651C186.948 175.651 206.868 155.908 206.868 132.2C206.868 108.407 187.117 88.8335 163.213 88.8335C139.309 88.8335 119.558 108.407 119.558 132.2C119.558 156.077 139.309 175.651 163.213 175.651ZM158.127 157.849C156.516 157.849 154.567 157.174 153.295 155.824L137.359 138.443C136.511 137.6 135.918 135.912 135.918 134.478C135.918 130.85 138.715 128.488 141.936 128.488C143.886 128.488 145.412 129.247 146.514 130.428L157.788 142.746L179.403 112.795C180.59 111.276 182.37 110.179 184.489 110.179C187.795 110.179 190.592 112.795 190.592 116.17C190.592 117.182 190.169 118.532 189.321 119.629L163.128 155.571C162.111 156.921 160.161 157.849 158.127 157.849Z" fill="#007AFF" />
</svg>
    