<svg width="556" height="144" viewBox="0 0 556 144" fill="none" xmlns="http://www.w3.org/2000/svg">
    <path
        d="M556 71.3811L539.013 74.7623L550.435 87.7831L556 71.3811ZM0.629874 1.61054C1.03486 2.51937 1.45465 3.42567 1.88906 4.32936L4.59288 3.02961C4.17083 2.15164 3.76319 1.27156 3.37013 0.389464L0.629874 1.61054ZM6.18828 12.3907C7.19404 14.106 8.25228 15.8109 9.36162 17.505L11.8714 15.8615C10.7884 14.2076 9.75628 12.5447 8.77621 10.8732L6.18828 12.3907ZM14.6439 24.9879C15.835 26.5603 17.0702 28.1225 18.3483 29.6741L20.6639 27.7668C19.411 26.2457 18.2011 24.7154 17.0352 23.1764L14.6439 24.9879ZM24.3615 36.5584C25.7001 38.0072 27.0762 39.446 28.4888 40.8744L30.6219 38.7649C29.2325 37.36 27.8799 35.9458 26.565 34.5226L24.3615 36.5584ZM35.0669 47.2112C36.5175 48.5446 38.0001 49.8681 39.514 51.1816L41.4801 48.9157C39.9873 47.6205 38.5261 46.316 37.097 45.0025L35.0669 47.2112ZM46.5346 57.0239C48.0723 58.2524 49.6376 59.4714 51.2296 60.6805L53.0441 58.2915C51.4712 57.0968 49.9253 55.8929 48.4071 54.6801L46.5346 57.0239ZM58.5641 66.0491C60.1843 67.1926 61.8286 68.3267 63.4966 69.451L65.1734 66.9634C63.523 65.8509 61.8963 64.729 60.2941 63.5981L58.5641 66.0491ZM71.0684 74.3867C72.7622 75.4547 74.4775 76.5133 76.2138 77.562L77.7649 74.9941C76.0448 73.9551 74.3458 72.9067 72.6686 71.8491L71.0684 74.3867ZM83.9684 82.1026C85.7207 83.0974 87.4921 84.0827 89.282 85.0581L90.7176 82.4239C88.9427 81.4566 87.1865 80.4798 85.4495 79.4937L83.9684 82.1026ZM97.2044 89.2501C98.985 90.1648 100.782 91.0702 102.595 91.9661L103.924 89.2765C102.125 88.3875 100.342 87.4891 98.5754 86.5816L97.2044 89.2501ZM110.729 95.871C112.533 96.7121 114.351 97.5441 116.182 98.3667L117.411 95.63C115.592 94.8132 113.788 93.9872 111.997 93.1522L110.729 95.871ZM124.503 101.998C126.326 102.771 128.161 103.535 130.009 104.29L131.143 101.513C129.308 100.763 127.485 100.004 125.674 99.2362L124.503 101.998ZM138.404 107.623C140.272 108.344 142.152 109.056 144.043 109.758L145.088 106.946C143.209 106.248 141.341 105.541 139.484 104.824L138.404 107.623ZM152.491 112.807C154.384 113.47 156.287 114.125 158.199 114.769L159.157 111.926C157.256 111.286 155.365 110.635 153.484 109.976L152.491 112.807ZM166.755 117.569C168.657 118.173 170.567 118.768 172.486 119.353L173.361 116.484C171.453 115.902 169.554 115.311 167.663 114.71L166.755 117.569ZM181.169 121.92C183.08 122.468 184.999 123.006 186.925 123.534L187.719 120.641C185.804 120.116 183.895 119.581 181.995 119.036L181.169 121.92ZM195.639 125.849C197.583 126.348 199.534 126.838 201.491 127.317L202.205 124.404C200.259 123.926 198.319 123.44 196.385 122.943L195.639 125.849ZM210.234 129.386C212.185 129.832 214.143 130.267 216.105 130.693L216.741 127.761C214.789 127.338 212.842 126.904 210.901 126.461L210.234 129.386ZM224.936 132.535C226.894 132.927 228.856 133.309 230.823 133.682L231.381 130.734C229.425 130.364 227.473 129.983 225.525 129.593L224.936 132.535ZM239.703 135.29C241.674 135.631 243.65 135.962 245.629 136.283L246.109 133.322C244.14 133.003 242.175 132.673 240.214 132.334L239.703 135.29ZM254.528 137.654C256.511 137.944 258.496 138.223 260.484 138.492L260.886 135.519C258.909 135.251 256.934 134.974 254.962 134.686L254.528 137.654ZM269.424 139.628C271.412 139.865 273.401 140.091 275.392 140.307L275.715 137.324C273.735 137.11 271.756 136.885 269.779 136.649L269.424 139.628ZM284.365 141.205C286.359 141.389 288.354 141.561 290.351 141.723L290.593 138.733C288.608 138.572 286.623 138.4 284.64 138.218L284.365 141.205ZM299.339 142.379C301.338 142.508 303.337 142.626 305.337 142.734L305.498 139.738C303.509 139.631 301.521 139.514 299.533 139.385L299.339 142.379ZM314.346 143.142C316.348 143.215 318.35 143.278 320.352 143.329L320.429 140.33C318.438 140.279 316.447 140.217 314.456 140.144L314.346 143.142ZM329.36 143.482C331.367 143.499 333.373 143.504 335.378 143.497L335.368 140.497C333.375 140.504 331.38 140.499 329.385 140.482L329.36 143.482ZM344.39 143.388C346.391 143.345 348.391 143.291 350.389 143.225L350.29 140.227C348.304 140.292 346.316 140.346 344.327 140.388L344.39 143.388ZM359.413 142.843C361.414 142.739 363.413 142.624 365.41 142.495L365.217 139.502C363.234 139.629 361.247 139.744 359.258 139.847L359.413 142.843ZM374.398 141.831C376.401 141.664 378.401 141.484 380.397 141.29L380.107 138.304C378.125 138.496 376.138 138.675 374.148 138.842L374.398 141.831ZM389.352 140.332C391.345 140.099 393.335 139.852 395.32 139.591L394.93 136.617C392.958 136.875 390.983 137.121 389.002 137.353L389.352 140.332ZM404.264 138.321C406.244 138.019 408.218 137.702 410.188 137.372L409.691 134.413C407.737 134.741 405.776 135.055 403.81 135.356L404.264 138.321ZM419.079 135.778C421.053 135.401 423.022 135.01 424.983 134.604L424.375 131.666C422.429 132.069 420.476 132.457 418.517 132.831L419.079 135.778ZM433.769 132.679C435.735 132.223 437.694 131.753 439.645 131.267L438.92 128.356C436.985 128.838 435.042 129.304 433.092 129.756L433.769 132.679ZM448.372 128.978C450.303 128.445 452.226 127.897 454.14 127.333L453.292 124.455C451.395 125.014 449.489 125.558 447.574 126.086L448.372 128.978ZM462.793 124.658C464.702 124.039 466.601 123.404 468.491 122.753L467.514 119.917C465.642 120.562 463.759 121.191 461.868 121.804L462.793 124.658ZM476.987 119.69C478.872 118.979 480.746 118.252 482.609 117.507L481.496 114.721C479.651 115.459 477.796 116.179 475.929 116.882L476.987 119.69ZM490.918 114.04C492.77 113.234 494.609 112.41 496.436 111.568L495.181 108.843C493.373 109.676 491.553 110.492 489.721 111.289L490.918 114.04ZM504.58 107.655C506.374 106.757 508.154 105.84 509.922 104.905L508.519 102.253C506.771 103.178 505.01 104.084 503.236 104.973L504.58 107.655ZM517.855 100.53C519.597 99.5294 521.325 98.5098 523.038 97.4709L521.482 94.9059C519.79 95.9323 518.083 96.9398 516.361 97.9287L517.855 100.53ZM530.683 92.6402C532.365 91.5338 534.031 90.4075 535.68 89.2614L533.968 86.7976C532.34 87.9293 530.695 89.0414 529.034 90.1341L530.683 92.6402ZM542.998 83.9651C544.606 82.753 546.196 81.5205 547.77 80.2675L545.901 77.9208C544.348 79.1571 542.779 80.3733 541.192 81.5696L542.998 83.9651Z"
        fill="white" />
</svg>