<svg width="198" height="168" viewBox="0 0 198 168" fill="none" xmlns="http://www.w3.org/2000/svg">
    <path
        d="M113.622 167.558C159.459 167.558 197.36 129.657 197.36 83.8194C197.36 37.9009 159.378 0 113.541 0C71.1048 0 35.3904 32.5559 30.4503 74.1012C34.0947 73.2914 37.82 72.8864 41.7072 72.8864C66.7316 72.8864 87.8687 90.4602 93.2946 113.298C99.4495 111.84 106.171 110.949 113.541 110.949C136.703 110.949 154.519 119.453 163.023 129.09C151.037 142.452 132.977 150.956 113.541 150.956C105.928 150.956 97.5868 149.417 90.4602 146.583C89.0834 150.956 85.763 156.382 81.5518 160.998C91.513 165.209 102.284 167.558 113.622 167.558ZM113.541 96.939C97.8298 96.777 85.763 83.6574 85.6821 66.3267C85.5201 49.9677 97.9108 36.2812 113.541 36.2812C129.09 36.2812 141.4 49.9677 141.4 66.3267C141.4 83.6574 129.252 97.1009 113.541 96.939ZM41.7072 167.882C64.383 167.882 83.4145 148.931 83.4145 126.094C83.4145 103.256 64.626 84.3863 41.7072 84.3863C18.8695 84.3863 0 103.256 0 126.094C0 149.012 18.8695 167.882 41.7072 167.882ZM30.5313 145.611C28.2637 147.959 24.6194 147.636 22.4328 145.449C20.2462 143.262 19.9223 139.618 22.2709 137.35L33.6897 125.932L23.0807 115.242C20.9751 113.055 20.8941 109.492 23.0807 107.467C25.1863 105.361 28.7497 105.361 30.8553 107.467L41.5453 118.076L52.9641 106.657C55.3127 104.309 58.7951 104.633 60.9817 106.9C63.2492 109.087 63.5732 112.569 61.2246 114.918L49.8057 126.336L60.4148 136.946C62.5204 139.132 62.6014 142.695 60.4148 144.801C58.3092 146.907 54.8268 146.907 52.6402 144.801L41.9502 134.192L30.5313 145.611Z"
        fill="#CD1818" />
</svg>