<svg width="90" height="90" viewBox="0 0 90 90" fill="none" xmlns="http://www.w3.org/2000/svg">
    <path fill-rule="evenodd" clip-rule="evenodd"
        d="M44.5508 23.4905C44.691 23.4917 44.8318 23.4867 44.9764 23.4748V55.5422C44.9764 55.6251 44.9764 55.4982 44.9764 55.5912C44.9224 59.8159 49.6628 61.8134 52.8538 59.3693L52.86 59.3643L59.096 54.318C61.1982 52.5869 62.6817 50.2101 63.2833 47.457L63.2814 47.4564L64.2225 43.0024C66.0826 42.292 67.3857 40.9434 67.5951 38.3424C67.7114 36.8971 67.4907 35.394 67.1764 33.9876C66.666 31.7019 65.7538 29.4582 64.4394 27.2592C62.9891 28.4262 62.0632 30.0028 61.5037 31.8633C60.9184 33.8111 60.9775 35.0542 61.4094 37.0076C61.9142 39.2896 62.5648 41.0961 63.3506 42.4603C63.0136 44.0985 62.7025 45.6418 62.3687 47.3025C61.8079 49.8181 60.374 51.9519 58.4485 53.5341L52.2239 58.571C51.2099 59.4912 46.091 60.4748 46.1124 55.5667C46.1344 39.5113 46.2695 54.7545 46.2695 38.6753C47.3734 37.0516 48.4772 35.4279 49.5817 33.8036C52.5464 34.6905 54.937 34.3777 56.5583 32.1849C57.3359 31.1322 58.0456 29.6391 58.2291 28.327C58.4353 26.8616 58.2744 24.8949 57.554 22.1658C55.5474 22.2612 53.5842 22.6833 51.6939 23.6462C49.0914 24.9703 48.1485 26.1838 48.1296 29.2855C48.1221 30.6033 48.3817 31.9148 48.8833 33.2175C47.9687 34.2847 47.0264 35.5535 46.1117 36.6207C45.9659 32.2308 46.2569 27.6781 46.1117 23.2882L46.1193 23.2863V23.2844C47.1226 22.9936 47.5676 22.4107 48.156 21.4346C49.3146 19.5107 49.0738 17.8719 47.7053 16.1892C46.8416 15.1277 45.6346 13.9279 44.5496 13.1353C43.4646 13.9279 42.2576 15.1277 41.3939 16.1892C40.0253 17.8719 39.7846 19.5107 40.9431 21.4346C41.5315 22.4107 41.9766 22.9936 42.9799 23.2844V23.2863L42.9874 23.2882C42.8422 27.6781 43.1333 32.2308 42.9874 36.6207C42.0728 35.5535 41.1311 34.2847 40.2158 33.2175C40.7175 31.9148 40.9771 30.6033 40.9695 29.2855C40.9507 26.1838 40.0077 24.9703 37.4052 23.6462C35.5156 22.684 33.5524 22.2612 31.5452 22.1658C30.8254 24.8949 30.6638 26.8616 30.87 28.327C31.0536 29.6391 31.7633 31.1322 32.5409 32.1849C34.1628 34.3777 36.5534 34.6905 39.5174 33.8036C40.6213 35.4273 41.7252 37.051 42.8297 38.6753C42.8297 54.7545 42.9648 39.5113 42.9868 55.5667C43.0082 60.4748 37.8899 59.4912 36.8759 58.571L30.6513 53.5341C28.7258 51.9519 27.29 49.8181 26.7299 47.3025C26.3961 45.6418 26.0862 44.0985 25.7492 42.4603C26.5356 41.0961 27.1856 39.289 27.6904 37.0076C28.1223 35.0542 28.1814 33.8111 27.5955 31.8633C27.036 30.0028 26.11 28.4262 24.6598 27.2592C23.346 29.4582 22.4332 31.7019 21.9228 33.9876C21.6084 35.394 21.3878 36.8971 21.5041 38.3424C21.7134 40.9434 23.0166 42.292 24.8767 43.0024L25.8177 47.4564L25.8159 47.457C26.4168 50.2101 27.9004 52.5863 30.0025 54.3174L36.2385 59.3643L36.246 59.3693C39.4376 61.8134 44.1774 59.8159 44.1234 55.5912C44.1234 55.4982 44.1234 55.6251 44.1234 55.5422V23.4748C44.268 23.4867 44.4081 23.4917 44.5483 23.4905H44.5508ZM45.0858 5.00235C48.6275 5.00235 52.0743 5.36855 55.3821 6.05885C52.8619 2.74112 49.9904 0.620583 46.9227 0.0458528L46.9076 0.0452247C46.2752 0.0175874 45.6409 0 45.0022 0C44.8677 0 44.7338 0.00439685 44.5992 0.00565309C44.2428 0.0131905 43.8883 0.0276373 43.5344 0.0464809C40.4874 0.617443 37.634 2.71348 35.1265 5.99227C38.3318 5.34656 41.6642 5.00235 45.0858 5.00235ZM56.0906 6.214C61.5967 7.447 66.7062 9.57696 71.2103 12.406C64.8184 5.2134 56.3483 0.580384 47.0515 0.0515059C50.3342 0.643196 53.4051 2.81838 56.0906 6.214ZM73.0949 13.6522C79.9099 18.4115 85.1526 24.8265 88.0186 32.1114C83.2831 17.0214 70.5245 4.70462 54.6296 1.08414C61.7865 3.18018 68.152 7.61533 73.0949 13.6522ZM89.267 53.4399C87.097 61.1859 82.073 68.0537 75.1719 73.1974C80.4757 65.5708 83.6879 55.8801 83.7885 45.3164H90C89.9793 48.1178 89.7309 50.83 89.267 53.4399ZM89.9994 44.5777H83.7917C83.7439 33.3143 80.1595 23.0263 74.2686 15.154C80.8535 20.0056 85.841 26.4049 88.4429 33.5574C89.4267 37.1157 89.966 40.8134 89.9994 44.5777ZM89.1218 54.2081C86.7557 62.3806 81.3727 69.533 74.0442 74.747C68.4582 82.0822 60.853 87.2711 52.2484 89.1222C70.8306 86.2372 85.4707 72.9336 89.1218 54.2081ZM50.7887 89.1159C59.3519 87.6153 67.0281 82.7518 72.7492 75.6326C68.0974 78.7048 62.732 81.0213 56.9021 82.3673C54.7648 85.3541 52.3578 87.545 49.7754 88.7396C50.0821 88.9099 50.4191 89.0374 50.7887 89.1159ZM49.6616 88.6731C52.0076 87.4872 54.1978 85.3804 56.1534 82.5325C53.2586 83.155 50.2537 83.5407 47.1684 83.6607C47.3344 85.5921 48.0636 87.7089 49.6616 88.6731ZM47.1332 82.7775C50.4687 82.6519 53.7093 82.2204 56.8198 81.5194C59.1866 77.7613 61.1749 72.884 62.6289 67.2309C62.9847 67.1618 63.338 67.0908 63.69 67.018C62.1719 72.6685 60.0911 77.5534 57.61 81.3335C63.6624 79.8687 69.1993 77.3738 73.9298 74.0931C79.5484 66.4175 82.999 56.4184 83.1021 45.3164H77.0056V44.5777H83.1052C83.0537 32.8005 79.0015 21.9465 72.4764 13.8978C67.8528 10.8181 62.5352 8.47523 56.7682 7.10844C59.4726 10.8263 61.7526 15.8111 63.4191 21.667C63.0715 21.596 62.7226 21.527 62.3712 21.4597C60.7757 15.6038 58.5982 10.6291 56.0201 6.93759C52.5174 6.16375 48.8557 5.74856 45.0852 5.74856C41.4354 5.74856 37.8874 6.138 34.4871 6.8641C31.8997 10.5443 29.714 15.5133 28.1097 21.3687C27.7596 21.4334 27.4107 21.4999 27.0637 21.569C28.7409 15.7118 31.0316 10.7308 33.7479 7.02553C28.2084 8.29559 23.0794 10.4689 18.5703 13.3287C11.7289 21.4836 7.45804 32.6258 7.4046 44.5784H11.4517V45.317H7.40712C7.50959 56.6741 11.0098 66.7498 16.7058 74.4116C21.423 77.5968 26.9122 80.0113 32.8999 81.4183C30.4092 77.6483 28.319 72.7672 26.7921 67.1166C27.1429 67.1876 27.4962 67.256 27.8513 67.3226C29.3129 72.9744 31.3088 77.8468 33.6831 81.5948C36.3573 82.1796 39.1264 82.5652 41.9678 82.7285V69.4607H41.9615C41.9659 69.3778 41.9678 70.0317 41.9678 69.2107C41.9678 68.3898 41.2499 66.2617 40.1272 65.3497L40.0486 65.2869C40.0121 65.2586 39.9757 65.231 39.9392 65.2039L39.9411 65.2008L28.3807 55.9932C25.9699 57.0007 23.5585 58.0076 21.1477 59.0151C21.1376 61.8247 20.6196 63.2976 19.6874 63.6789C19.0568 63.937 18.3239 63.6393 17.726 63.4107C16.3739 62.8893 15.0669 62.0313 13.8279 60.684C13.8675 57.8154 14.7394 55.6289 16.9654 54.5491C18.041 54.3268 19.2964 55.1521 20.8428 57.6615C23.0071 56.7438 25.1715 55.8274 27.3346 54.9097C24.7208 51.798 22.1063 48.685 19.4919 45.572C17.3501 48.1172 15.6931 47.4533 14.4383 44.1292C13.5212 41.6953 13.1848 38.804 13.6972 35.2432C15.0651 34.7112 16.2771 34.5378 17.3225 34.8714C18.3 35.1829 18.7608 35.453 19.314 36.2903C20.2902 37.767 20.3286 40.4792 19.8841 44.2655C22.513 47.4225 25.1413 50.5807 27.7703 53.7382C28.1625 54.2834 28.4052 54.5692 28.9276 55.0768C32.9998 58.3757 36.4522 61.1199 40.5628 64.4314C42.0269 65.5161 42.9768 68.1944 42.9768 69.2158C42.9768 70.2371 42.9749 69.3797 42.9711 69.4614V82.9999C42.9862 84.1343 42.5185 88.4582 39.6318 89.4789C42.2752 90.1171 46.8479 90.1598 50.4134 89.658C46.9547 89.4375 46.0979 85.3679 46.1293 82.9999V69.4614C46.1262 69.3797 46.1237 70.2371 46.1237 69.2158C46.1237 68.1944 47.0729 65.5161 48.5376 64.4314C52.6482 61.1199 56.1006 58.3757 60.1729 55.0768C60.6946 54.5692 60.9379 54.2841 61.3295 53.7382C63.9585 50.5807 66.5868 47.4225 69.2157 44.2655C68.7712 40.4792 68.8096 37.7676 69.7858 36.2903C70.3397 35.4536 70.8005 35.1829 71.7773 34.8714C72.8227 34.5378 74.0347 34.7112 75.4026 35.2432C75.9156 38.8047 75.5793 41.6959 74.6615 44.1292C73.4067 47.4533 71.749 48.1178 69.6079 45.572C66.9929 48.685 64.3784 51.798 61.7652 54.9097C63.9289 55.8274 66.0927 56.7438 68.257 57.6615C69.8034 55.1521 71.0588 54.3268 72.1344 54.5491C74.3597 55.6289 75.2316 57.8154 75.2712 60.684C74.0322 62.0313 72.7259 62.8887 71.3738 63.4107C70.7753 63.6399 70.0423 63.937 69.4118 63.6789C68.4796 63.2976 67.9616 61.8247 67.9515 59.0151C65.5407 58.0076 63.1293 57.0007 60.7185 55.9932L49.1581 65.2008L49.1599 65.2039C49.1228 65.231 49.0864 65.2586 49.0506 65.2869L48.972 65.3497C47.8492 66.2617 47.1314 68.3898 47.1314 69.2107C47.1314 70.0317 47.1332 69.3778 47.1376 69.4607H47.1314V82.7788L47.1332 82.7775ZM41.937 83.6091C39.3414 83.4565 36.8068 83.1148 34.3495 82.6029C36.1033 85.1411 38.0445 87.0845 40.1165 88.3037C41.3021 87.207 41.8132 85.3044 41.937 83.6091ZM40.0052 88.403C37.6988 87.1668 35.5426 85.1305 33.6058 82.4427C27.8463 81.1545 22.5313 78.9215 17.9021 75.9473C23.4466 82.7285 30.7996 87.376 39.0089 88.9921C39.3823 88.8521 39.7129 88.6517 40.0052 88.403ZM38.3871 89.1605C29.878 87.3791 22.337 82.3366 16.7435 75.1791C8.48522 69.5097 2.58932 61.4183 0.523018 52.1623C3.44362 71.9606 18.3113 86.0393 37.3832 89.2044C37.7434 89.2315 38.0772 89.2145 38.3871 89.1605ZM1.07181 35.5428C3.49517 27.3597 9.02332 20.0345 16.5348 14.6955C10.4377 22.6249 6.71312 33.0938 6.66408 44.5777H0.00880078V45.3164H6.66722C6.77032 56.0805 10.1027 65.9382 15.5875 73.6302C7.82641 68.0412 2.33535 60.3065 0.440668 51.5781C0.150871 49.43 0 47.2165 0 44.9427C0 41.7537 0.371519 38.6043 1.07181 35.5428ZM1.38424 34.259C4.09111 25.8503 9.92917 18.4529 17.7392 13.2C22.9506 7.01045 29.68 2.57153 37.2223 0.709148C19.7332 3.92136 5.7092 17.6898 1.38424 34.259ZM19.8678 11.8508C24.2418 9.24154 29.1539 7.27992 34.4236 6.13925C37.0959 2.78634 40.1454 0.639427 43.4042 0.052134C34.396 0.564681 26.1735 4.99419 19.8678 11.8508Z"
        fill="#008DD2" />
</svg>