<svg width="126" height="159" viewBox="0 0 126 159" fill="none" xmlns="http://www.w3.org/2000/svg">
    <path d="M0 134.911C0 150.775 8.1551 159 23.8776 159H102.122C117.845 159 126 150.775 126 134.911V24.0887C126 8.29885 117.845 0 102.122 0H23.8776C8.1551 0 0 8.29885 0 24.0887V134.911ZM14.4 134.03V24.97C14.4 18.14 17.9265 14.3945 25.0531 14.3945H100.873C108 14.3945 111.6 18.14 111.6 24.97V134.03C111.6 140.86 108 144.606 100.873 144.606H25.0531C17.9265 144.606 14.4 140.86 14.4 134.03ZM31.7388 41.9349C35.5592 41.9349 38.5714 38.8503 38.5714 35.1049C38.5714 31.2859 35.5592 28.2748 31.7388 28.2748C27.9918 28.2748 24.9061 31.3594 24.9061 35.1049C24.9061 38.8503 27.9918 41.9349 31.7388 41.9349ZM51.9429 39.8785H96.3184C98.9633 39.8785 101.094 37.7487 101.094 35.1049C101.094 32.461 98.9633 30.3312 96.3184 30.3312H51.9429C49.298 30.3312 47.1673 32.461 47.1673 35.1049C47.1673 37.7487 49.298 39.8785 51.9429 39.8785ZM31.7388 63.8203C35.5592 63.8203 38.5714 60.7358 38.5714 56.9903C38.5714 53.1714 35.5592 50.2337 31.7388 50.2337C27.9184 50.2337 24.9061 53.2448 24.9061 56.9903C24.9061 60.7358 27.9184 63.8203 31.7388 63.8203ZM51.9429 61.764H96.3184C99.0367 61.764 101.094 59.6342 101.094 56.9903C101.094 54.3464 99.0367 52.2901 96.3184 52.2901H51.9429C49.2245 52.2901 47.1673 54.3464 47.1673 56.9903C47.1673 59.6342 49.2245 61.764 51.9429 61.764ZM31.7388 86.8074C35.5592 86.8074 38.5714 83.7229 38.5714 79.9774C38.5714 76.1584 35.5592 73.0739 31.7388 73.0739C27.9918 73.0739 24.9061 76.2319 24.9061 79.9774C24.9061 83.6494 27.9918 86.8074 31.7388 86.8074ZM51.9429 84.751H96.3184C98.9633 84.751 101.094 82.5478 101.094 79.9774C101.094 77.3335 99.0367 75.2037 96.3184 75.2037H51.9429C49.2245 75.2037 47.1673 77.3335 47.1673 79.9774C47.1673 82.5478 49.298 84.751 51.9429 84.751Z" fill="url(#paint0_linear_51_521)" />
    <defs>
        <linearGradient id="paint0_linear_51_521" x1="-4.46677e-07" y1="13.5" x2="112.5" y2="143" gradientUnits="userSpaceOnUse">
            <stop stop-color="#C284E9" />
            <stop offset="0.532111" stop-color="#EEA4BC" />
            <stop offset="1" stop-color="#92C9F9" />
        </linearGradient>
    </defs>
</svg>