<svg width="140" height="140" viewBox="0 0 140 140" fill="none" xmlns="http://www.w3.org/2000/svg">
    <path d="M70 140C108.287 140 140 108.354 140 70C140 31.7135 108.287 0 69.9322 0C31.6457 0 0 31.7135 0 70C0 108.354 31.7135 140 70 140ZM69.9322 130.577C38.7609 130.577 8.5 101.171 8.5 70C8.5 38.8287 38.7609 7.62821 69.9322 7.62821C101.104 7.62821 128.932 38.8287 129 70C129 101.171 101.104 130.577 69.9322 130.577Z" fill="#007AFF" />
    <path d="M79.0284 38.8182V97H66.7273V50.4943H66.3864L53.0625 58.8466V47.9375L67.4659 38.8182H79.0284Z" fill="#007AFF" />
</svg>
    