<svg width="308" height="142" viewBox="0 0 308 142" fill="none" xmlns="http://www.w3.org/2000/svg">
    <path d="M66.1929 69.0332C83.1953 69.0332 97.4805 53.9717 97.4805 34.4849C97.4805 15.4639 83.04 0.945801 66.1929 0.945801C49.3457 0.945801 34.8276 15.6968 34.9053 34.6401C34.9053 53.9717 49.2681 69.0332 66.1929 69.0332ZM154.078 69.0332C171.002 69.0332 185.365 53.9717 185.365 34.4849C185.365 15.4639 170.925 0.945801 154.078 0.945801C137.153 0.945801 122.712 15.6968 122.79 34.6401C122.79 53.9717 137.075 69.0332 154.078 69.0332ZM241.807 69.0332C258.732 69.0332 273.095 53.9717 273.095 34.4849C273.095 15.4639 258.654 0.945801 241.807 0.945801C224.96 0.945801 210.442 15.6968 210.52 34.6401C210.52 53.9717 224.882 69.0332 241.807 69.0332ZM17.7476 141.235H114.561C127.371 141.235 131.796 137.354 131.796 130.289C131.796 110.258 106.409 82.7749 66.1929 82.7749C25.8994 82.7749 0.589844 110.258 0.589844 130.289C0.589844 137.354 5.01514 141.235 17.7476 141.235ZM154 82.7749C141.035 82.7749 129.622 85.7251 120.15 90.3057C133.737 100.942 142.432 115.149 142.432 130.289C142.432 134.559 141.5 138.208 139.637 141.235H202.445C215.178 141.235 219.603 137.354 219.603 130.289C219.603 110.258 194.293 82.7749 154 82.7749ZM241.807 82.7749C228.842 82.7749 217.429 85.7251 207.958 90.3057C221.544 100.864 230.239 115.149 230.239 130.289C230.239 134.559 229.308 138.208 227.522 141.235H290.175C302.907 141.235 307.333 137.354 307.333 130.289C307.333 110.258 282.023 82.7749 241.807 82.7749Z" fill="#007AFF" />
</svg>
    