<svg width="157" height="157" viewBox="0 0 157 157" fill="none" xmlns="http://www.w3.org/2000/svg">
<path d="M78.4239 156.745C121.317 156.745 156.72 121.342 156.72 78.5245C156.72 35.7073 121.241 0.303711 78.3483 0.303711C35.5311 0.303711 0.203125 35.7073 0.203125 78.5245C0.203125 121.342 35.6067 156.745 78.4239 156.745ZM78.4239 141.162C43.7011 141.162 15.9381 113.247 15.9381 78.5245C15.9381 43.8017 43.7011 15.963 78.3483 15.963C113.071 15.963 140.985 43.8017 141.061 78.5245C141.137 113.247 113.147 141.162 78.4239 141.162ZM78.4239 75.9524C89.0147 76.0281 97.563 66.9502 97.563 54.9977C97.563 43.8017 89.0147 34.4969 78.4239 34.4969C67.7574 34.4969 59.2091 43.8017 59.2091 54.9977C59.2091 66.9502 67.7574 75.8768 78.4239 75.9524ZM44.9872 116.349H111.785C115.038 116.349 116.702 114.079 116.702 111.053C116.702 102.883 104.598 81.853 78.4239 81.853C52.1738 81.853 40.07 102.883 40.07 111.053C40.07 114.079 41.7343 116.349 44.9872 116.349Z" fill="url(#paint0_linear_137_119)"/>
<defs>
<linearGradient id="paint0_linear_137_119" x1="18.5" y1="6.49999" x2="130.5" y2="173" gradientUnits="userSpaceOnUse">
<stop offset="0.182292" stop-color="#C284E9"/>
<stop offset="0.510417" stop-color="#EEA4BC"/>
<stop offset="0.791667" stop-color="#92C9F9"/>
</linearGradient>
</defs>
</svg>
