<svg width="457" height="511" viewBox="0 0 457 511" fill="none" xmlns="http://www.w3.org/2000/svg">
    <path
        d="M284.262 322.272C284.369 322.051 284.583 321.83 284.69 321.609C284.583 321.83 284.369 322.051 284.262 322.272Z"
        fill="#D6E1FE" />
    <path
        d="M282.871 324.922C282.871 324.812 282.977 324.812 282.977 324.701C282.871 324.812 282.871 324.922 282.871 324.922Z"
        fill="#D6E1FE" />
    <path
        d="M285.977 319.733C286.084 319.512 286.298 319.291 286.512 319.07C286.298 319.291 286.191 319.512 285.977 319.733Z"
        fill="#D6E1FE" />
    <path
        d="M288.223 317.082C288.33 316.972 288.33 316.861 288.437 316.861C288.437 316.861 288.33 316.972 288.223 317.082Z"
        fill="#D6E1FE" />
    <path
        d="M280.516 331.548C280.623 331.327 280.623 330.996 280.73 330.775C280.73 330.996 280.623 331.217 280.516 331.548Z"
        fill="#D6E1FE" />
    <path
        d="M281.48 328.346C281.587 328.125 281.587 328.015 281.695 327.794C281.587 328.015 281.587 328.125 281.48 328.346Z"
        fill="#D6E1FE" />
    <path
        d="M295.93 311.229C296.251 311.118 296.465 310.898 296.786 310.787C296.465 310.898 296.144 311.118 295.93 311.229Z"
        fill="#D6E1FE" />
    <path
        d="M293.141 312.886C293.462 312.665 293.676 312.555 293.997 312.334C293.676 312.555 293.462 312.665 293.141 312.886Z"
        fill="#D6E1FE" />
    <path
        d="M306.309 307.916C306.737 307.916 307.058 307.916 307.486 307.806C307.058 307.806 306.63 307.806 306.309 307.916Z"
        fill="#D6E1FE" />
    <path
        d="M290.684 314.763C290.898 314.653 291.005 314.542 291.219 314.321C291.112 314.432 290.898 314.542 290.684 314.763Z"
        fill="#D6E1FE" />
    <path
        d="M279.872 341.487C279.872 341.156 279.766 340.824 279.766 340.604C279.766 340.935 279.872 341.266 279.872 341.487Z"
        fill="#D6E1FE" />
    <path
        d="M280.3 344.801C280.193 344.359 280.193 343.917 280.086 343.586C280.193 344.028 280.193 344.469 280.3 344.801Z"
        fill="#D6E1FE" />
    <path
        d="M281.052 347.892C280.945 347.561 280.837 347.119 280.73 346.788C280.837 347.23 280.945 347.561 281.052 347.892Z"
        fill="#D6E1FE" />
    <path
        d="M302.992 308.469C303.741 308.248 304.384 308.248 305.133 308.027C304.384 308.248 303.634 308.359 302.992 308.469Z"
        fill="#D6E1FE" />
    <path
        d="M279.98 334.53C279.98 334.309 280.087 334.088 280.087 333.757C280.087 334.088 279.98 334.309 279.98 334.53Z"
        fill="#D6E1FE" />
    <path
        d="M302.672 308.579C301.602 308.8 300.638 309.131 299.568 309.573C299.568 309.573 299.568 309.573 299.461 309.573C299.461 309.573 299.461 309.573 299.568 309.573C300.638 309.131 301.709 308.8 302.672 308.579Z"
        fill="#D6E1FE" />
    <path
        d="M282.231 350.985C282.124 350.654 282.017 350.433 281.91 350.102C282.017 350.433 282.124 350.764 282.231 350.985Z"
        fill="#D6E1FE" />
    <path
        d="M98.8851 320.727C98.7781 320.506 98.5641 320.285 98.457 320.064C98.6711 320.285 98.7781 320.506 98.8851 320.727Z"
        fill="#D6E1FE" />
    <path
        d="M100.384 323.266C100.384 323.155 100.277 323.155 100.277 323.045C100.277 323.155 100.277 323.266 100.384 323.266Z"
        fill="#D6E1FE" />
    <path
        d="M97.1758 318.076C97.0687 317.855 96.8547 317.634 96.6406 317.413C96.8547 317.744 97.0687 317.855 97.1758 318.076Z"
        fill="#D6E1FE" />
    <path
        d="M94.9289 315.426C94.8219 315.316 94.8219 315.205 94.7148 315.205C94.8219 315.316 94.9289 315.316 94.9289 315.426Z"
        fill="#D6E1FE" />
    <path
        d="M102.632 329.892C102.525 329.671 102.525 329.34 102.418 329.119C102.525 329.34 102.525 329.561 102.632 329.892Z"
        fill="#D6E1FE" />
    <path
        d="M101.777 326.69C101.67 326.469 101.67 326.359 101.562 326.138C101.562 326.359 101.67 326.579 101.777 326.69Z"
        fill="#D6E1FE" />
    <path
        d="M87.325 309.573C87.0039 309.462 86.7898 309.241 86.4688 309.131C86.7898 309.241 87.0039 309.462 87.325 309.573Z"
        fill="#D6E1FE" />
    <path
        d="M90.0008 311.23C89.6797 311.009 89.4656 310.899 89.1445 310.678C89.4656 310.899 89.7867 311.119 90.0008 311.23Z"
        fill="#D6E1FE" />
    <path
        d="M76.9469 306.26C76.5187 306.26 76.1976 306.26 75.7695 306.149C76.1976 306.26 76.5187 306.26 76.9469 306.26Z"
        fill="#D6E1FE" />
    <path
        d="M92.4648 313.106C92.2508 312.995 92.1437 312.885 91.9297 312.664C92.1437 312.774 92.3578 312.995 92.4648 313.106Z"
        fill="#D6E1FE" />
    <path
        d="M103.383 339.942C103.383 339.611 103.489 339.279 103.489 339.059C103.383 339.279 103.383 339.611 103.383 339.942Z"
        fill="#D6E1FE" />
    <path
        d="M102.848 343.254C102.955 342.812 102.955 342.37 103.062 342.039C103.062 342.37 102.955 342.812 102.848 343.254Z"
        fill="#D6E1FE" />
    <path
        d="M35.3106 326.137C38.8426 312.112 50.937 303.057 63.9946 302.726C50.937 302.946 38.8426 312.112 35.3106 326.137L25.785 364.567L69.025 382.457L10.4798 471.686C6.84078 477.208 -1.4005 473.342 0.204946 466.827L35.3106 326.137Z"
        fill="#D6E1FE" />
    <path
        d="M68.063 382.348L9.51789 471.577C8.01947 473.785 5.77184 474.558 3.73828 474.006L44.8376 372.74L68.063 382.348Z"
        fill="#91A2C6" />
    <path
        d="M102.098 346.347C102.205 346.015 102.312 345.573 102.419 345.242C102.312 345.573 102.205 345.905 102.098 346.347Z"
        fill="#D6E1FE" />
    <path
        d="M80.2617 306.922C79.5125 306.701 78.8703 306.701 78.1211 306.48C78.8703 306.591 79.5125 306.701 80.2617 306.922Z"
        fill="#D6E1FE" />
    <path
        d="M103.169 332.873C103.169 332.652 103.062 332.431 103.062 332.1C103.169 332.431 103.169 332.652 103.169 332.873Z"
        fill="#D6E1FE" />
    <path
        d="M80.4766 306.922C81.5469 307.143 82.5101 307.474 83.5804 307.916C83.5804 307.916 83.5804 307.916 83.6874 307.916C83.6874 307.916 83.6874 307.916 83.5804 307.916C82.5101 307.474 81.5469 307.253 80.4766 306.922Z"
        fill="#D6E1FE" />
    <path
        d="M101.027 349.328C101.134 348.996 101.241 348.776 101.348 348.444C101.241 348.776 101.134 349.107 101.027 349.328Z"
        fill="#D6E1FE" />
    <path
        d="M35.3108 326.137C38.8428 312.112 50.9371 302.946 63.8877 302.726C64.7439 302.726 65.6002 302.726 66.3494 302.836C66.5634 302.836 66.8845 302.836 67.0986 302.836C67.8478 302.946 68.4899 303.057 69.2391 303.167C69.6673 303.278 69.9884 303.278 70.4165 303.388C70.8446 303.499 71.2727 303.609 71.5938 303.719C72.236 303.94 72.9852 304.051 73.6274 304.272C73.7344 304.272 73.7344 304.382 73.8414 304.382C74.8047 304.713 75.875 305.155 76.8382 305.597C76.8382 305.597 76.8383 305.597 76.9453 305.597C77.9085 306.039 78.7648 306.48 79.621 307.032C79.9421 307.143 80.1562 307.364 80.3702 307.585C81.0124 308.026 81.6546 308.468 82.1897 308.91C82.4038 309.131 82.7249 309.351 82.9389 309.462C83.5811 310.014 84.1162 310.456 84.7584 311.008C84.9725 311.118 85.0795 311.339 85.2936 311.45C86.0428 312.223 86.685 312.885 87.3271 313.769C87.4342 313.879 87.4342 313.99 87.5412 313.99C88.0763 314.652 88.6115 315.425 89.1466 316.198C89.2537 316.419 89.4677 316.64 89.5748 316.861C90.0029 317.523 90.324 318.186 90.7521 318.849C90.8591 319.069 90.9661 319.29 91.0732 319.511C91.5013 320.395 91.9294 321.168 92.2505 322.051C92.2505 322.162 92.3575 322.162 92.3575 322.272C92.6786 323.266 92.9997 324.26 93.3208 325.254C93.3208 325.475 93.4278 325.585 93.4278 325.806C93.6419 326.579 93.8559 327.352 93.963 328.235C93.963 328.567 94.07 328.787 94.07 329.119C94.177 329.892 94.284 330.665 94.284 331.438C94.284 331.659 94.2841 331.88 94.3911 332.211C94.4981 333.205 94.4981 334.309 94.3911 335.303C94.3911 336.297 94.2841 337.291 94.07 338.285C94.07 338.616 93.963 338.947 93.963 339.168C93.8559 339.61 93.8559 339.941 93.7489 340.383C93.6419 340.714 93.6419 340.935 93.5349 341.266C93.4278 341.708 93.3208 342.039 93.2138 342.481C92.9997 343.144 92.7857 343.806 92.5716 344.358C92.4646 344.69 92.3575 345.131 92.1435 345.463C91.8224 346.236 91.5013 346.898 91.1802 347.561C91.0732 347.782 90.9661 348.113 90.7521 348.334C90.2169 349.328 89.6818 350.322 89.0396 351.205L68.49 382.457L25.7852 364.567L35.3108 326.137Z"
        fill="#121544" />
    <path
        d="M313.374 302.063C299.781 305.707 291.005 318.186 290.684 331.659C291.005 318.186 299.781 305.707 313.374 302.063L350.62 292.235L367.959 336.849L454.439 276.443C459.79 272.688 456.044 264.185 449.73 265.841L313.374 302.063Z"
        fill="#D6E1FE" />
    <path
        d="M367.956 335.856L454.436 275.45C456.577 273.904 457.326 271.585 456.791 269.486L358.645 311.892L367.956 335.856Z"
        fill="#91A2C6" />
    <path
        d="M313.479 302.174C299.887 305.818 291.003 318.297 290.789 331.659C290.789 332.542 290.789 333.426 290.896 334.199C290.896 334.42 290.896 334.751 290.896 334.972C291.003 335.745 291.11 336.407 291.217 337.18C291.324 337.622 291.324 337.953 291.431 338.395C291.538 338.837 291.645 339.279 291.752 339.61C291.966 340.273 292.073 341.045 292.287 341.708C292.287 341.819 292.395 341.819 292.395 341.929C292.716 342.923 293.144 344.027 293.572 345.021C293.572 345.021 293.572 345.021 293.572 345.132C294 346.125 294.428 347.009 294.963 347.892C295.07 348.224 295.284 348.444 295.498 348.665C295.926 349.328 296.355 349.99 296.783 350.543C296.997 350.763 297.211 351.095 297.318 351.316C297.853 351.978 298.281 352.53 298.816 353.193C298.923 353.414 299.137 353.524 299.244 353.745C299.994 354.518 300.636 355.181 301.492 355.843C301.599 355.954 301.706 355.954 301.706 356.064C302.348 356.616 303.097 357.169 303.847 357.721C304.061 357.831 304.275 358.052 304.489 358.162C305.131 358.604 305.773 358.935 306.415 359.377C306.629 359.488 306.844 359.598 307.058 359.708C307.914 360.15 308.663 360.592 309.519 360.923C309.626 360.923 309.626 361.034 309.733 361.034C310.697 361.365 311.66 361.696 312.623 362.028C312.837 362.028 312.944 362.138 313.158 362.138C313.907 362.359 314.657 362.58 315.513 362.69C315.834 362.69 316.048 362.801 316.369 362.801C317.118 362.911 317.868 363.021 318.617 363.021C318.831 363.021 319.045 363.021 319.366 363.132C320.329 363.242 321.4 363.242 322.363 363.132C323.326 363.132 324.289 363.021 325.253 362.801C325.574 362.801 325.895 362.69 326.109 362.69C326.537 362.58 326.858 362.58 327.286 362.469C327.607 362.359 327.821 362.359 328.142 362.248C328.57 362.138 328.892 362.027 329.32 361.917C329.962 361.696 330.604 361.475 331.139 361.255C331.46 361.144 331.888 361.034 332.209 360.813C332.959 360.481 333.601 360.15 334.243 359.819C334.457 359.708 334.778 359.598 334.992 359.377C335.956 358.825 336.919 358.273 337.775 357.61L368.064 336.407L350.726 291.793L313.479 302.174Z"
        fill="#121544" />
    <path
        d="M215.87 509.123H172.202C117.296 509.123 72.3438 462.741 72.3438 406.09V326.91C72.3438 302.284 91.8231 282.186 115.691 282.186H271.419C295.286 282.186 314.766 302.284 314.766 326.91V407.084C314.766 463.293 270.241 509.123 215.87 509.123Z"
        fill="#D6E1FE" />
    <path opacity="0.68"
        d="M314.763 353.635V386.543C314.763 455.011 260.499 511 194.141 511C127.141 511 72.2344 454.459 72.2344 385.218V353.635H314.763Z"
        fill="#91A2C6" />
    <path
        d="M211.589 495.318H175.092C136.775 495.318 105.844 463.293 105.844 423.869V390.519C105.844 377.709 115.905 367.328 128.32 367.328H252.367C266.281 367.328 277.519 378.923 277.519 393.28V427.293C277.412 464.839 247.979 495.318 211.589 495.318Z"
        fill="#121544" />
    <path
        d="M218.549 80.7577H168.459C160.539 80.7577 154.117 74.1318 154.117 65.9598V59.4444C154.117 51.2724 160.539 44.6465 168.459 44.6465H218.549C226.469 44.6465 232.891 51.2724 232.891 59.4444V65.9598C232.891 74.1318 226.469 80.7577 218.549 80.7577Z"
        fill="#121544" />
    <path
        d="M351.799 211.73C351.799 136.305 292.611 75.2363 219.724 75.2363H162.999C90.4326 75.2363 31.5664 136.084 31.5664 211.067V220.123H351.906V211.73H351.799Z"
        fill="#D6E1FE" />
    <path opacity="0.69"
        d="M351.796 220.123H31.457V232.271C31.457 268.05 59.4988 296.983 94.1763 296.983H289.826C324.076 296.983 351.903 268.271 351.903 232.933L351.796 220.123Z"
        fill="#91A2C6" />
    <path
        d="M263.393 273.793H120.295C95.4637 273.793 75.4492 253.032 75.4492 227.522V194.834C75.4492 140.944 117.833 97.2129 170.063 97.2129H212.768C265.32 97.2129 307.917 141.165 307.917 195.387V228.074C307.81 253.363 287.903 273.793 263.393 273.793Z"
        fill="#121544" />
    <path
        d="M137.416 220.013C152.135 220.013 164.066 207.702 164.066 192.515C164.066 177.329 152.135 165.018 137.416 165.018C122.697 165.018 110.766 177.329 110.766 192.515C110.766 207.702 122.697 220.013 137.416 220.013Z"
        fill="#DFE7F4" />
    <path
        d="M250.76 220.013C265.478 220.013 277.41 207.702 277.41 192.515C277.41 177.329 265.478 165.018 250.76 165.018C236.041 165.018 224.109 177.329 224.109 192.515C224.109 207.702 236.041 220.013 250.76 220.013Z"
        fill="#DFE7F4" />
    <path opacity="0.4"
        d="M137.418 230.945C157.989 230.945 174.664 213.74 174.664 192.515C174.664 171.291 157.989 154.085 137.418 154.085C116.848 154.085 100.172 171.291 100.172 192.515C100.172 213.74 116.848 230.945 137.418 230.945Z"
        fill="#69F9A7" />
    <path opacity="0.39"
        d="M250.762 230.945C271.332 230.945 288.008 213.74 288.008 192.515C288.008 171.291 271.332 154.085 250.762 154.085C230.191 154.085 213.516 171.291 213.516 192.515C213.516 213.74 230.191 230.945 250.762 230.945Z"
        fill="#69F9A7" />
    <path
        d="M205.915 234.148C211.695 234.148 215.441 239.56 212.658 243.977C208.591 250.603 200.671 255.02 191.573 255.02C182.476 255.02 174.556 250.492 170.489 243.977C167.813 239.56 171.452 234.148 177.232 234.148H205.915Z"
        fill="#DFE7F4" />
    <path opacity="0.51"
        d="M235.242 355.291H151.866C147.264 355.291 143.625 351.426 143.625 346.788V343.034C143.625 338.285 147.371 334.53 151.866 334.53H235.242C239.845 334.53 243.484 338.395 243.484 343.034V346.788C243.484 351.426 239.845 355.291 235.242 355.291Z"
        fill="#69F9A7" />
    <path fill-rule="evenodd" clip-rule="evenodd"
        d="M59.1797 103.286C60.143 72.5863 63.6749 24.659 74.4849 16.2662C124.575 -6.04104 252.903 -4.93672 305.776 16.7079C315.944 20.7939 324.292 75.6784 324.185 106.378C306.632 92.6849 282.015 83.0773 253.973 77.5557C233.852 73.5802 211.911 71.5924 189.863 71.7028C167.708 71.8133 145.553 73.9115 125.217 78.1079C99.958 83.2982 77.0536 91.691 59.1797 103.286Z"
        fill="#121544" />
    <path fill-rule="evenodd" clip-rule="evenodd"
        d="M59.1789 103.287C76.9458 91.5813 99.9572 83.2989 125.216 78.1086C145.552 73.9122 167.707 71.814 189.862 71.7036C211.91 71.5931 233.851 73.5809 253.973 77.5565C281.907 83.0781 306.631 92.6856 324.184 106.379C324.291 111.349 324.184 131.005 323.863 135.312C277.412 66.5133 120.828 61.4334 58.9648 131.337C58.9648 127.472 59.0719 107.704 59.1789 103.287Z"
        fill="#F3F7FF" />
    <path
        d="M180.123 64.7461C176.484 64.7461 173.594 61.7645 173.594 58.0098C173.594 54.2551 176.484 51.2734 180.123 51.2734C183.762 51.2734 186.651 54.2551 186.651 58.0098C186.651 61.7645 183.762 64.7461 180.123 64.7461ZM180.123 54.5864C178.303 54.5864 176.805 56.1324 176.805 58.0098C176.805 59.8871 178.303 61.4332 180.123 61.4332C181.942 61.4332 183.44 59.8871 183.44 58.0098C183.548 56.1324 181.942 54.5864 180.123 54.5864Z"
        fill="#F3F7FF" />
    <path
        d="M201.529 64.6348C197.89 64.6348 195 61.6531 195 57.8984C195 54.1437 197.89 51.1621 201.529 51.1621C205.168 51.1621 208.058 54.1437 208.058 57.8984C208.058 61.6531 205.168 64.6348 201.529 64.6348ZM201.529 54.4751C199.709 54.4751 198.211 56.0211 198.211 57.8984C198.211 59.7758 199.709 61.3218 201.529 61.3218C203.348 61.3218 204.847 59.7758 204.847 57.8984C204.847 56.0211 203.348 54.4751 201.529 54.4751Z"
        fill="#F3F7FF" />
    <path fill-rule="evenodd" clip-rule="evenodd"
        d="M164.819 42.9906C171.562 36.0334 180.873 31.7266 191.148 31.7266C201.423 31.7266 210.734 36.0334 217.477 42.9906C220.795 46.414 223.578 50.6104 225.504 55.1381C228.073 51.2729 231.177 48.0704 234.816 45.4201C242.415 39.8985 252.048 37.3586 261.787 39.1255L262.216 39.2359C272.169 41.1132 280.518 46.9661 285.976 54.9172C289.294 59.7762 291.435 65.2978 292.291 71.2611C294.752 69.1629 297.535 67.2856 300.425 65.9604C306.633 62.9787 313.59 61.764 320.547 62.6474C321.082 66.0708 321.51 69.6046 321.938 73.1384C315.944 71.8133 309.844 72.5863 304.492 75.1262C298.927 77.7766 294.217 82.4147 291.328 88.4884C288.117 87.2737 284.906 86.0589 281.481 84.9546C281.802 83.8503 282.123 82.746 282.337 81.5312C283.621 73.9115 281.802 66.5125 277.949 60.7701C273.989 54.9172 267.888 50.7208 260.61 49.2852H260.503C253.118 47.96 245.947 49.7269 240.381 53.8129C234.709 57.8989 230.642 64.1935 229.25 71.7028V71.8132C229.143 72.5863 229.036 73.2489 228.929 74.0219C225.397 73.6906 221.972 73.2489 218.333 73.028V72.6967V72.3654V72.0341V71.7028V71.3715V71.0402V70.7089V70.3776V70.0463V69.715V69.3838L218.226 68.7212L218.119 68.3899L218.012 68.0586L217.905 67.7273L217.798 67.396L217.691 67.0647L217.584 66.7334L217.477 66.4021C216.3 61.8744 214.159 57.7884 211.162 54.4755L210.948 54.2546L210.52 53.8129L210.306 53.592C205.383 48.5122 198.426 45.3096 190.934 45.3096C183.335 45.3096 176.485 48.5122 171.561 53.592L171.347 53.8129L170.919 54.2546L170.705 54.4755C167.708 57.7884 165.568 61.8744 164.39 66.4021L164.283 66.7334L164.176 67.0647L164.069 67.396L163.962 67.7273L163.855 68.0586L163.748 68.3899L163.641 68.7212L163.534 69.3838V69.715V70.0463V70.3776V70.7089V71.0402V71.3715V71.7028V72.0341V72.3654V72.6967V73.028C160.002 73.3593 156.47 73.6906 152.938 74.0219C152.831 73.2489 152.724 72.5863 152.617 71.8132V71.7028C151.333 64.1935 147.159 57.8989 141.486 53.8129C135.814 49.7269 128.643 47.8496 121.365 49.2852H121.258C113.98 50.6104 107.879 54.9172 103.919 60.7701C99.9587 66.623 98.1392 74.0219 99.5306 81.5312C99.7447 82.746 99.9587 83.8503 100.387 84.9546C97.0689 86.0589 93.751 87.2737 90.5401 88.4884C87.6503 82.4147 82.941 77.7766 77.3755 75.1262C72.024 72.5863 65.9233 71.8133 59.9297 73.1384C60.3578 69.6046 60.7859 66.0708 61.3211 62.6474C68.278 61.764 75.2349 62.9787 81.4426 65.9604C84.3324 67.396 87.1152 69.1629 89.5769 71.2611C90.4331 65.2978 92.5737 59.6658 95.8916 54.9172C101.243 46.9661 109.591 41.1132 119.652 39.2359L120.08 39.1255C129.927 37.469 139.453 40.0089 147.052 45.4201C150.691 48.0704 153.902 51.3834 156.363 55.1381C158.718 50.4999 161.501 46.414 164.819 42.9906Z"
        fill="#F3F7FF" />
    <path
        d="M247.766 70.1566C247.337 70.1566 247.016 70.1566 246.588 70.0462C243.056 69.3836 240.702 65.9602 241.344 62.316C241.986 58.6717 245.304 56.2422 248.836 56.9048C250.548 57.2361 252.047 58.23 253.01 59.6656C253.973 61.1012 254.401 62.8681 254.08 64.635C253.652 67.948 250.869 70.1566 247.766 70.1566ZM247.766 60.1073C246.16 60.1073 244.876 61.2116 244.555 62.8681C244.234 64.7455 245.411 66.5124 247.23 66.7332C249.05 67.0645 250.762 65.8498 250.977 63.9724C251.298 62.0951 250.12 60.4386 248.301 60.1073C248.194 60.2178 247.98 60.1073 247.766 60.1073Z"
        fill="#F3F7FF" />
    <path
        d="M267.781 74.7943C267.46 74.7943 267.032 74.7943 266.604 74.6839C264.891 74.3526 263.393 73.3587 262.43 71.9231C261.466 70.4875 261.038 68.7206 261.359 66.9537C262.001 63.3094 265.319 60.8799 268.851 61.5425C272.383 62.2051 274.738 65.6285 274.096 69.2727C273.561 72.5857 270.778 74.7943 267.781 74.7943ZM267.781 64.745C266.176 64.745 264.891 65.8493 264.57 67.5058C264.463 68.3893 264.57 69.2727 265.105 70.0457C265.641 70.8188 266.39 71.2605 267.246 71.4814C269.065 71.8127 270.778 70.5979 270.992 68.7206C271.313 66.8432 270.136 65.0763 268.316 64.8555C268.102 64.8555 267.888 64.745 267.781 64.745Z"
        fill="#F3F7FF" />
    <path
        d="M311.234 92.3537C310.485 92.3537 309.736 92.2433 308.987 91.912C305.562 90.5868 303.849 86.7217 305.133 83.2983C306.418 79.7645 310.164 77.9976 313.482 79.3228C315.087 79.9854 316.479 81.2001 317.121 82.8566C317.87 84.5131 317.977 86.28 317.335 88.0469C316.693 89.7034 315.515 91.139 313.91 91.8016C313.161 92.1329 312.197 92.3537 311.234 92.3537ZM311.234 82.194C309.843 82.194 308.558 83.0775 308.13 84.5131C307.488 86.28 308.344 88.2677 310.164 88.9303C311.02 89.2616 311.876 89.2616 312.733 88.8199C313.589 88.3782 314.124 87.7156 314.445 86.8321C314.766 85.9487 314.766 85.0652 314.338 84.1818C313.91 83.2983 313.268 82.7462 312.411 82.4149C311.983 82.194 311.662 82.194 311.234 82.194Z"
        fill="#F3F7FF" />
    <path
        d="M134.53 70.1566C133.245 70.1566 131.961 69.7149 130.891 68.9419C129.499 67.948 128.536 66.4019 128.215 64.635C127.894 62.8681 128.322 61.1012 129.285 59.6656C130.248 58.23 131.747 57.2361 133.459 56.9048C136.991 56.2422 140.309 58.6717 140.951 62.316C141.593 65.9602 139.239 69.3836 135.707 70.0462C135.279 70.1566 134.958 70.1566 134.53 70.1566ZM133.994 60.2178C132.175 60.5491 130.998 62.316 131.319 64.0829C131.64 65.9602 133.352 67.175 135.065 66.8437C136.884 66.5124 138.062 64.7455 137.74 62.9786C137.419 61.1012 135.707 59.8865 133.994 60.2178Z"
        fill="#F3F7FF" />
    <path
        d="M114.62 74.7943C111.516 74.7943 108.84 72.4752 108.305 69.2727C107.663 65.6285 110.017 62.2051 113.549 61.5425C117.081 60.8799 120.399 63.3094 121.041 66.9537C121.683 70.5979 119.329 74.0213 115.797 74.6839C115.369 74.7943 114.941 74.7943 114.62 74.7943ZM114.62 64.745C114.405 64.745 114.191 64.745 114.084 64.745C112.265 65.0763 111.088 66.8432 111.409 68.7206C111.73 70.5979 113.442 71.8127 115.155 71.4814C116.974 71.1501 118.151 69.3832 117.83 67.6163C117.509 65.9598 116.118 64.745 114.62 64.745Z"
        fill="#F3F7FF" />
    <path
        d="M71.0593 92.3527C70.0961 92.3527 69.2398 92.1318 68.2765 91.6901C66.6711 90.9171 65.4938 89.5919 64.8516 87.9354C63.5672 84.4016 65.3867 80.5365 68.7047 79.3218C72.1296 77.9966 75.8757 79.8739 77.053 83.2973C78.3373 86.8311 76.5178 90.6962 73.1999 91.911C72.6648 92.2423 71.8085 92.3527 71.0593 92.3527ZM71.0593 82.193C70.6312 82.193 70.3101 82.3034 69.882 82.4139C68.1695 83.0765 67.2063 85.0642 67.8484 86.8311C68.1695 87.7146 68.8117 88.3772 69.5609 88.8189C70.4172 89.1502 71.2734 89.2606 72.1296 88.9293C73.8421 88.2667 74.8054 86.279 74.1632 84.5121C73.7351 82.966 72.4507 82.193 71.0593 82.193Z"
        fill="#F3F7FF" />
</svg>