<svg width="143" height="152" viewBox="0 0 143 152" fill="none" xmlns="http://www.w3.org/2000/svg">
<path d="M7.0742 51.1015C11.6941 51.1015 14.1484 48.416 14.1484 43.5053V26.1646C14.1484 18.7219 17.8299 15.0389 24.5432 15.0389H41.2181C45.838 15.0389 48.3645 12.3534 48.3645 7.51943C48.3645 2.68551 45.838 0 41.2181 0H23.6769C8.0848 0 0 8.51691 0 24.8602V43.5053C0 48.416 2.5265 51.1015 7.0742 51.1015ZM135.926 51.1015C140.546 51.1015 143 48.416 143 43.5053V24.8602C143 8.51691 134.915 0 119.323 0H101.782C97.162 0 94.6355 2.68551 94.6355 7.51943C94.6355 12.3534 97.162 15.0389 101.782 15.0389H118.457C125.098 15.0389 128.852 18.7219 128.852 26.1646V43.5053C128.852 48.416 131.378 51.1015 135.926 51.1015ZM33.5664 47.0348C33.5664 50.0273 35.8763 52.4826 38.7638 52.4826H104.236C107.124 52.4826 109.434 50.0273 109.434 47.0348C109.434 43.9657 107.124 41.5103 104.236 41.5103H38.7638C35.8763 41.5103 33.5664 43.9657 33.5664 47.0348ZM33.5664 75.8849C33.5664 78.8773 35.8763 81.3327 38.7638 81.3327H104.236C107.124 81.3327 109.434 78.8773 109.434 75.8849C109.434 72.8157 107.124 70.3604 104.236 70.3604H38.7638C35.8763 70.3604 33.5664 72.8157 33.5664 75.8849ZM33.5664 104.735C33.5664 107.727 35.8763 110.183 38.7638 110.183H81.7865C84.6017 110.183 86.9117 107.727 86.9117 104.735C86.9117 101.666 84.6017 99.2105 81.7865 99.2105H38.7638C35.8763 99.2105 33.5664 101.666 33.5664 104.735ZM23.6769 152H41.2181C45.838 152 48.3645 149.314 48.3645 144.481C48.3645 139.647 45.838 136.961 41.2181 136.961H24.5432C17.8299 136.961 14.1484 133.278 14.1484 125.759V108.418C14.1484 103.507 11.6219 100.822 7.0742 100.822C2.45432 100.822 0 103.507 0 108.418V127.063C0 143.483 8.0848 152 23.6769 152ZM101.782 152H119.323C134.915 152 143 143.483 143 127.063V108.418C143 103.507 140.473 100.822 135.926 100.822C131.306 100.822 128.852 103.584 128.852 108.418V125.759C128.852 133.278 125.098 136.961 118.457 136.961H101.782C97.162 136.961 94.6355 139.647 94.6355 144.481C94.6355 149.314 97.162 152 101.782 152Z" fill="url(#paint0_linear_51_562)"/>
<defs>
<linearGradient id="paint0_linear_51_562" x1="8.43714e-07" y1="-25" x2="143" y2="191.5" gradientUnits="userSpaceOnUse">
<stop offset="0.114583" stop-color="#C284E9"/>
<stop offset="0.421875" stop-color="#EEA4BC"/>
<stop offset="0.713542" stop-color="#92C9F9"/>
</linearGradient>
</defs>
</svg>
