<svg width="140" height="140" viewBox="0 0 140 140" fill="none" xmlns="http://www.w3.org/2000/svg">
    <path d="M70 140C108.287 140 140 108.354 140 70C140 31.7135 108.287 0 69.9322 0C31.6457 0 0 31.7135 0 70C0 108.354 31.7135 140 70 140ZM69.9322 130.577C38.7609 130.577 8.5 101.171 8.5 70C8.5 38.8287 38.7609 7.62821 69.9322 7.62821C101.104 7.62821 128.932 38.8287 129 70C129 101.171 101.104 130.577 69.9322 130.577Z" fill="#007AFF" />
    <path d="M70.2216 97.7955C65.9792 97.7955 62.2008 97.0663 58.8864 95.608C55.5909 94.1307 52.9867 92.1042 51.0739 89.5284C49.1799 86.9337 48.2045 83.9413 48.1477 80.5511H60.5341C60.6098 81.9716 61.0739 83.2216 61.9261 84.3011C62.7973 85.3617 63.9527 86.1856 65.392 86.7727C66.8314 87.3598 68.4508 87.6534 70.25 87.6534C72.125 87.6534 73.7822 87.322 75.2216 86.6591C76.661 85.9962 77.7879 85.0777 78.6023 83.9034C79.4167 82.7292 79.8239 81.375 79.8239 79.8409C79.8239 78.2879 79.3883 76.9148 78.517 75.7216C77.6648 74.5095 76.4337 73.5625 74.8239 72.8807C73.233 72.1989 71.339 71.858 69.142 71.858H63.7159V62.8239H69.142C70.9981 62.8239 72.6364 62.5019 74.0568 61.858C75.4962 61.214 76.6136 60.3239 77.4091 59.1875C78.2045 58.0322 78.6023 56.6875 78.6023 55.1534C78.6023 53.6951 78.2519 52.4167 77.5511 51.3182C76.8693 50.2008 75.9034 49.3295 74.6534 48.7045C73.4223 48.0795 71.983 47.767 70.3352 47.767C68.6686 47.767 67.1439 48.0701 65.7614 48.6761C64.3788 49.2633 63.2708 50.1061 62.4375 51.2045C61.6042 52.303 61.1591 53.5909 61.1023 55.0682H49.3125C49.3693 51.7159 50.3258 48.7614 52.1818 46.2045C54.0379 43.6477 56.5379 41.6496 59.6818 40.2102C62.8447 38.7519 66.4148 38.0227 70.392 38.0227C74.4072 38.0227 77.9205 38.7519 80.9318 40.2102C83.9432 41.6686 86.2822 43.6383 87.9489 46.1193C89.6345 48.5814 90.4678 51.3466 90.4489 54.4148C90.4678 57.6723 89.4545 60.3902 87.4091 62.5682C85.3826 64.7462 82.7405 66.1288 79.483 66.7159V67.1705C83.7633 67.7197 87.0208 69.2064 89.2557 71.6307C91.5095 74.036 92.6269 77.0473 92.608 80.6648C92.6269 83.9792 91.6705 86.9242 89.7386 89.5C87.8258 92.0758 85.1837 94.1023 81.8125 95.5795C78.4413 97.0568 74.5777 97.7955 70.2216 97.7955Z" fill="#007AFF" />
</svg>
    