<svg width="201" height="201" viewBox="0 0 201 201" fill="none" xmlns="http://www.w3.org/2000/svg">
    <path d="M98.9042 145.151C96.488 148.728 93.1931 150.741 89.1295 150.741C85.1756 150.741 81.9906 149.064 79.0252 145.151L52.9957 112.958C51.2385 110.61 50.25 108.151 50.25 105.468C50.25 99.879 54.4235 95.5194 59.8051 95.5194C63.1 95.5194 65.7359 96.7491 68.3718 100.214L88.8 126.707L132.182 55.8363C134.489 52.0356 137.454 50.2471 140.749 50.2471C145.911 50.2471 150.743 53.9359 150.743 59.4133C150.743 61.9844 149.426 64.6672 147.998 67.0146L98.9042 145.151Z" fill="#007AFF" />
    <path d="M100.494 200.987C155.458 200.987 200.987 155.556 200.987 100.494C200.987 45.5285 155.458 0 100.396 0C45.4312 0 0 45.5285 0 100.494C0 155.556 45.5285 200.987 100.494 200.987ZM100.494 181.239C55.7433 181.239 19.8458 145.244 19.8458 100.494C19.8458 55.7433 55.646 19.8458 100.396 19.8458C145.146 19.8458 181.141 55.7433 181.239 100.494C181.239 145.244 145.244 181.239 100.494 181.239Z" fill="#007AFF" />
</svg>
    