<svg width="140" height="140" viewBox="0 0 140 140" fill="none" xmlns="http://www.w3.org/2000/svg">
    <path d="M70 140C108.287 140 140 108.354 140 70C140 31.7135 108.287 0 69.9322 0C31.6457 0 0 31.7135 0 70C0 108.354 31.7135 140 70 140ZM69.9322 130.577C38.7609 130.577 8.5 101.171 8.5 70C8.5 38.8287 38.7609 7.62821 69.9322 7.62821C101.104 7.62821 128.932 38.8287 129 70C129 101.171 101.104 130.577 69.9322 130.577Z" fill="#007AFF" />
    <path d="M48.7159 97V88.1364L69.4261 68.9602C71.1875 67.2557 72.6648 65.7216 73.858 64.358C75.0701 62.9943 75.9886 61.6591 76.6136 60.3523C77.2386 59.0265 77.5511 57.5966 77.5511 56.0625C77.5511 54.358 77.1629 52.8902 76.3864 51.6591C75.6098 50.4091 74.5492 49.4527 73.2045 48.7898C71.8598 48.108 70.3352 47.767 68.6307 47.767C66.8504 47.767 65.2973 48.1269 63.9716 48.8466C62.6458 49.5663 61.6231 50.5985 60.9034 51.9432C60.1837 53.2879 59.8239 54.8883 59.8239 56.7443H48.1477C48.1477 52.9375 49.0095 49.6326 50.733 46.8295C52.4564 44.0265 54.8712 41.858 57.9773 40.3239C61.0833 38.7898 64.6629 38.0227 68.7159 38.0227C72.8826 38.0227 76.5095 38.7614 79.5966 40.2386C82.7027 41.697 85.1174 43.7235 86.8409 46.3182C88.5644 48.9129 89.4261 51.8864 89.4261 55.2386C89.4261 57.4356 88.9905 59.6042 88.1193 61.7443C87.267 63.8845 85.7424 66.2614 83.5455 68.875C81.3485 71.4697 78.2519 74.5852 74.2557 78.2216L65.7614 86.5455V86.9432H90.1932V97H48.7159Z" fill="#007AFF" />
</svg>
    