<svg width="464" height="117" viewBox="0 0 464 117" fill="none" xmlns="http://www.w3.org/2000/svg">
    <path
        d="M464 116.086L455.966 100.742L446.694 115.372L464 116.086ZM1.88548 61.2924C2.69767 60.6985 3.51025 60.1098 4.32322 59.5263L2.5741 57.089C1.75381 57.6777 0.933943 58.2717 0.114517 58.8709L1.88548 61.2924ZM11.6501 54.4169C13.2804 53.3127 14.9121 52.2291 16.5451 51.166L14.9083 48.6519C13.26 49.7249 11.6131 50.8186 9.96773 51.933L11.6501 54.4169ZM23.9562 46.4857C25.6632 45.4405 27.3715 44.4172 29.0808 43.4154L27.5638 40.8272C25.8379 41.8387 24.1131 42.8719 22.3897 43.9271L23.9562 46.4857ZM36.7793 39.0514C38.4915 38.1135 40.2046 37.1967 41.9183 36.3006L40.5283 33.6421C38.7973 34.5471 37.0672 35.4731 35.338 36.4203L36.7793 39.0514ZM49.867 32.2949C51.6478 31.4308 53.4291 30.5887 55.2108 29.7681L53.9559 27.0432C52.1558 27.8722 50.3563 28.723 48.5574 29.5958L49.867 32.2949ZM63.2311 26.2202C65.0588 25.4446 66.8867 24.6912 68.7147 23.9596L67.6 21.1744C65.7529 21.9137 63.9059 22.675 62.0592 23.4586L63.2311 26.2202ZM77.0004 20.7919C78.8416 20.1207 80.6826 19.471 82.5232 18.8427L81.554 16.0035C79.6939 16.6386 77.8334 17.295 75.9728 17.9734L77.0004 20.7919ZM90.9529 16.1115C92.8432 15.5316 94.7328 14.9737 96.6217 14.4372L95.8021 11.5513C93.8932 12.0935 91.9834 12.6574 90.0731 13.2434L90.9529 16.1115ZM105.116 12.1669C107.037 11.6855 108.956 11.2258 110.874 10.7874L110.206 7.86279C108.268 8.30585 106.328 8.77044 104.387 9.25697L105.116 12.1669ZM119.54 8.9486C121.463 8.57163 123.385 8.21556 125.306 7.87997L124.789 4.92476C122.849 5.26386 120.907 5.62367 118.963 6.0046L119.54 8.9486ZM134.065 6.48797C136.017 6.20852 137.967 5.94971 139.914 5.71111L139.549 2.73338C137.582 2.97443 135.612 3.23591 133.64 3.51826L134.065 6.48797ZM148.674 4.77118C150.645 4.58941 152.614 4.42785 154.58 4.28603L154.365 1.2938C152.379 1.43704 150.39 1.60024 148.398 1.78385L148.674 4.77118ZM163.408 3.77965C165.369 3.69589 167.327 3.63129 169.282 3.58538L169.211 0.58621C167.238 0.632563 165.26 0.697801 163.28 0.782387L163.408 3.77965ZM178.158 3.504C180.125 3.51393 182.089 3.5423 184.048 3.58864L184.119 0.589476C182.141 0.542701 180.159 0.514062 178.174 0.504038L178.158 3.504ZM192.89 3.91959C194.861 4.02037 196.828 4.13884 198.79 4.27453L198.997 1.28168C197.017 1.14476 195.033 1.02521 193.043 0.923505L192.89 3.91959ZM207.588 4.99964C209.555 5.18776 211.518 5.39269 213.475 5.61394L213.812 2.63293C211.838 2.40977 209.858 2.20304 207.874 2.01326L207.588 4.99964ZM222.263 6.72049C224.207 6.99019 226.145 7.27552 228.078 7.57595L228.539 4.61155C226.59 4.30863 224.635 4.02092 222.675 3.74894L222.263 6.72049ZM236.842 9.04763C238.78 9.39718 240.711 9.76143 242.636 10.1399L243.215 7.19621C241.275 6.81479 239.328 6.44763 237.374 6.09526L236.842 9.04763ZM251.305 11.9484C253.236 12.3743 255.159 12.8139 257.074 13.2668L257.765 10.3473C255.835 9.89101 253.897 9.44803 251.951 9.01888L251.305 11.9484ZM265.642 15.3917C267.561 15.89 269.472 16.4011 271.375 16.9242L272.171 14.0316C270.254 13.5047 268.329 12.9899 266.396 12.488L265.642 15.3917ZM279.891 19.3623C281.777 19.9236 283.654 20.4963 285.522 21.0797L286.417 18.2162C284.536 17.6287 282.646 17.0521 280.747 16.487L279.891 19.3623ZM293.988 23.8179C295.854 24.4422 297.711 25.0767 299.557 25.7208L300.545 22.8882C298.687 22.2399 296.818 21.6013 294.939 20.9728L293.988 23.8179ZM307.92 28.7286C309.774 29.4155 311.617 30.1114 313.448 30.8157L314.525 28.0156C312.682 27.3069 310.828 26.6066 308.962 25.9154L307.92 28.7286ZM321.677 34.0661C323.52 34.8136 325.351 35.5688 327.168 36.3312L328.329 33.5647C326.5 32.7978 324.658 32.038 322.804 31.286L321.677 34.0661ZM335.259 39.8074C337.091 40.6129 338.908 41.4248 340.71 42.2423L341.949 39.5102C340.137 38.688 338.309 37.8714 336.467 37.0613L335.259 39.8074ZM348.731 45.9617C350.527 46.8124 352.306 47.6678 354.07 48.5269L355.384 45.83C353.611 44.9662 351.821 44.1061 350.016 43.2506L348.731 45.9617ZM362.023 52.4819C363.783 53.3745 365.524 54.2698 367.248 55.167L368.633 52.5059C366.9 51.604 365.149 50.7039 363.38 49.8064L362.023 52.4819ZM375.132 59.3496C376.858 60.2826 378.564 61.2161 380.249 62.149L381.702 59.5244C380.008 58.5866 378.294 57.6483 376.558 56.7104L375.132 59.3496ZM388.056 66.5497C389.756 67.5249 391.432 68.4979 393.084 69.4673L394.603 66.8799C392.942 65.9056 391.258 64.9277 389.549 63.9475L388.056 66.5497ZM400.793 74.069C402.475 75.0904 404.129 76.1057 405.754 77.1135L407.335 74.5642C405.703 73.5515 404.041 72.5311 402.35 71.5046L400.793 74.069ZM413.331 81.8922C415.014 82.9712 416.66 84.0383 418.269 85.0917L419.912 82.5819C418.296 81.5233 416.641 80.4509 414.95 79.3666L413.331 81.8922ZM425.63 89.9895C427.337 91.143 428.992 92.2745 430.594 93.3811L432.299 90.9126C430.689 89.8004 429.025 88.6633 427.31 87.504L425.63 89.9895ZM437.837 98.4636C439.494 99.6448 441.077 100.787 442.584 101.884L444.351 99.4594C442.835 98.3558 441.244 97.2081 439.579 96.0209L437.837 98.4636ZM449.689 107.144C451.439 108.461 453.03 109.675 454.459 110.775L456.289 108.397C454.852 107.292 453.252 106.071 451.493 104.747L449.689 107.144Z"
        fill="white" />
</svg>