<svg width="46" height="45" viewBox="0 0 46 45" fill="none" xmlns="http://www.w3.org/2000/svg">
    <path
        d="M22.9768 44.4188C35.0794 44.4188 45.0688 34.5763 45.0688 22.6728C45.0688 10.7693 35.058 0.926758 22.9555 0.926758C10.8743 0.926758 0.90625 10.7693 0.90625 22.6728C0.90625 34.5763 10.8956 44.4188 22.9768 44.4188ZM22.9768 29.9495C16.9576 29.9495 12.2831 32.0736 10.0205 34.5132C7.11761 31.4217 5.34598 27.2575 5.34598 22.6728C5.34598 13.0196 13.1795 5.28017 22.9555 5.28017C32.7528 5.28017 40.629 13.0196 40.6504 22.6728C40.6504 27.2575 38.8788 31.4217 35.9545 34.5342C33.692 32.0736 29.0174 29.9495 22.9768 29.9495ZM22.9768 26.5004C27.1177 26.5425 30.3408 23.0513 30.3408 18.5507C30.3408 14.3025 27.0964 10.7482 22.9768 10.7482C18.8786 10.7482 15.6129 14.3025 15.6342 18.5507C15.6556 23.0513 18.8573 26.4794 22.9768 26.5004Z"
        fill="#1D1D1F" />
</svg>