<svg width="28" height="28" viewBox="0 0 28 28" fill="none" xmlns="http://www.w3.org/2000/svg">
    <circle cx="14" cy="14" r="14" fill="black" />
    <path fill-rule="evenodd" clip-rule="evenodd" d="M10.9957 6.051C11.9021 6.00927 12.1911 6 14.5 6C16.8089 6 17.0979 6.01005 18.0035 6.051C18.9092 6.09195 19.5274 6.23645 20.0683 6.44586C20.6347 6.65991 21.1485 6.9945 21.5735 7.42723C22.0063 7.85145 22.3401 8.36455 22.5534 8.93173C22.7635 9.47264 22.9073 10.0908 22.949 10.9949C22.9907 11.9029 23 12.1919 23 14.5C23 16.8089 22.99 17.0979 22.949 18.0043C22.908 18.9084 22.7635 19.5266 22.5534 20.0675C22.3401 20.6348 22.0057 21.1487 21.5735 21.5735C21.1485 22.0063 20.6347 22.3401 20.0683 22.5534C19.5274 22.7635 18.9092 22.9073 18.0051 22.949C17.0979 22.9907 16.8089 23 14.5 23C12.1911 23 11.9021 22.99 10.9957 22.949C10.0916 22.908 9.47341 22.7635 8.9325 22.5534C8.36526 22.3401 7.85132 22.0057 7.42645 21.5735C6.99402 21.1491 6.65938 20.6354 6.44586 20.0683C6.23645 19.5274 6.09273 18.9092 6.051 18.0051C6.00927 17.0971 6 16.8081 6 14.5C6 12.1911 6.01005 11.9021 6.051 10.9965C6.09195 10.0908 6.23645 9.47264 6.44586 8.93173C6.65969 8.36461 6.99459 7.85092 7.42723 7.42645C7.85149 6.99411 8.36491 6.65948 8.93173 6.44586C9.47264 6.23645 10.0908 6.09273 10.9949 6.051H10.9957ZM17.9348 7.581C17.0384 7.54005 16.7695 7.53155 14.5 7.53155C12.2305 7.53155 11.9616 7.54005 11.0652 7.581C10.2361 7.61886 9.78636 7.75718 9.48655 7.87386C9.09014 8.02841 8.80655 8.21155 8.50905 8.50905C8.22703 8.7834 8.01 9.1174 7.87386 9.48655C7.75718 9.78636 7.61886 10.2361 7.581 11.0652C7.54005 11.9616 7.53155 12.2305 7.53155 14.5C7.53155 16.7695 7.54005 17.0384 7.581 17.9348C7.61886 18.7639 7.75718 19.2136 7.87386 19.5135C8.00986 19.882 8.227 20.2166 8.50905 20.491C8.78336 20.773 9.11795 20.9901 9.48655 21.1261C9.78636 21.2428 10.2361 21.3811 11.0652 21.419C11.9616 21.46 12.2297 21.4685 14.5 21.4685C16.7703 21.4685 17.0384 21.46 17.9348 21.419C18.7639 21.3811 19.2136 21.2428 19.5135 21.1261C19.9099 20.9716 20.1935 20.7885 20.491 20.491C20.773 20.2166 20.9901 19.882 21.1261 19.5135C21.2428 19.2136 21.3811 18.7639 21.419 17.9348C21.46 17.0384 21.4685 16.7695 21.4685 14.5C21.4685 12.2305 21.46 11.9616 21.419 11.0652C21.3811 10.2361 21.2428 9.78636 21.1261 9.48655C20.9716 9.09014 20.7885 8.80655 20.491 8.50905C20.2166 8.22706 19.8826 8.01003 19.5135 7.87386C19.2136 7.75718 18.7639 7.61886 17.9348 7.581ZM13.4143 17.1203C14.0206 17.3727 14.6958 17.4068 15.3244 17.2167C15.9531 17.0266 16.4963 16.6242 16.8612 16.0781C17.226 15.532 17.39 14.8762 17.3251 14.2227C17.2602 13.5691 16.9704 12.9584 16.5052 12.4948C16.2087 12.1984 15.8501 11.9715 15.4553 11.8303C15.0606 11.6892 14.6394 11.6373 14.2222 11.6785C13.805 11.7196 13.4021 11.8528 13.0425 12.0683C12.6829 12.2839 12.3756 12.5765 12.1426 12.9251C11.9097 13.2736 11.757 13.6695 11.6954 14.0842C11.6338 14.4989 11.665 14.9221 11.7866 15.3234C11.9082 15.7246 12.1173 16.0938 12.3987 16.4046C12.6802 16.7153 13.027 16.9597 13.4143 17.1203ZM11.4106 11.4106C11.8163 11.0049 12.298 10.6831 12.828 10.4636C13.3581 10.244 13.9263 10.131 14.5 10.131C15.0737 10.131 15.6419 10.244 16.172 10.4636C16.702 10.6831 17.1837 11.0049 17.5894 11.4106C17.9951 11.8163 18.3169 12.298 18.5364 12.828C18.756 13.3581 18.869 13.9263 18.869 14.5C18.869 15.0737 18.756 15.6419 18.5364 16.172C18.3169 16.702 17.9951 17.1837 17.5894 17.5894C16.77 18.4087 15.6587 18.869 14.5 18.869C13.3413 18.869 12.23 18.4087 11.4106 17.5894C10.5913 16.77 10.131 15.6587 10.131 14.5C10.131 13.3413 10.5913 12.23 11.4106 11.4106ZM19.838 10.7816C19.9385 10.6868 20.019 10.5728 20.0747 10.4463C20.1304 10.3198 20.1601 10.1834 20.1621 10.0452C20.1641 9.90698 20.1384 9.76979 20.0864 9.64172C20.0345 9.51365 19.9573 9.3973 19.8596 9.29958C19.7619 9.20185 19.6455 9.12472 19.5175 9.07276C19.3894 9.02081 19.2522 8.99507 19.114 8.99709C18.9758 8.9991 18.8394 9.02882 18.7129 9.08449C18.5864 9.14016 18.4724 9.22065 18.3775 9.32118C18.1931 9.5167 18.0921 9.77641 18.096 10.0452C18.1 10.3139 18.2085 10.5706 18.3985 10.7607C18.5886 10.9507 18.8452 11.0592 19.114 11.0631C19.3828 11.0671 19.6425 10.9661 19.838 10.7816Z" fill="white" />
</svg>
    