<svg width="132" height="49" viewBox="0 0 132 49" fill="none" xmlns="http://www.w3.org/2000/svg">
    <path d="M27.82 36.195C27.82 37.0017 27.5633 37.6617 27.05 38.175C26.5367 38.6883 25.8767 38.945 25.07 38.945C24.5567 38.945 23.9883 38.6883 23.365 38.175C22.7417 37.5517 22.43 36.8917 22.43 36.195C20.1567 38.0283 17.4433 38.945 14.29 38.945C10.4033 38.945 7.12167 37.6617 4.445 35.095C1.73167 32.4917 0.375 29.265 0.375 25.415C0.375 21.565 1.73167 18.2833 4.445 15.57C7.15833 12.8567 10.44 11.5 14.29 11.5C18.14 11.5 21.3667 12.8567 23.97 15.57C26.5367 18.2467 27.82 21.5283 27.82 25.415V36.195ZM8.295 31.19C9.87167 32.7667 11.87 33.555 14.29 33.555C16.6 33.555 18.5433 32.7667 20.12 31.19C21.66 29.65 22.43 27.725 22.43 25.415C22.43 23.0683 21.66 21.07 20.12 19.42C18.5433 17.7333 16.6 16.89 14.29 16.89C11.98 16.89 9.98167 17.7333 8.295 19.42C6.60833 21.1067 5.765 23.105 5.765 25.415C5.765 27.6883 6.60833 29.6133 8.295 31.19ZM30.998 14.14C30.998 13.4067 31.273 12.765 31.823 12.215C32.3363 11.7017 32.978 11.445 33.748 11.445C34.408 11.445 35.0496 11.7017 35.673 12.215C36.1863 12.8383 36.443 13.48 36.443 14.14V36.305C36.443 37.075 36.1863 37.7167 35.673 38.23C35.123 38.78 34.4813 39.055 33.748 39.055C32.978 39.055 32.3363 38.78 31.823 38.23C31.273 37.7167 30.998 37.075 30.998 36.305V14.14ZM35.673 5.175C35.1596 5.68833 34.518 5.945 33.748 5.945C32.978 5.945 32.3363 5.68833 31.823 5.175C31.273 4.625 30.998 3.98333 30.998 3.25C30.998 2.51667 31.273 1.875 31.823 1.325C32.373 0.774997 33.0146 0.499997 33.748 0.499997C34.4813 0.499997 35.123 0.774997 35.673 1.325C36.1863 1.83833 36.443 2.48 36.443 3.25C36.443 4.02 36.1863 4.66167 35.673 5.175Z" fill="#1D1D1F" />
    <path d="M107.478 49H69.5215C56.0127 49 45 38.5165 45 25.5C45 12.5539 55.9392 2 69.5215 2H107.478C120.987 2 132 12.4836 132 25.5C131.927 38.4461 120.987 49 107.478 49Z" fill="#1D1D1F" />
    <path d="M81.775 34.93C79.0617 37.6433 75.7983 39 71.985 39C68.2083 39 64.9633 37.6433 62.25 34.93C59.5367 32.2167 58.18 28.9717 58.18 25.195C58.18 21.3817 59.5367 18.1183 62.25 15.405C64.9267 12.7283 68.1717 11.39 71.985 11.39C75.835 11.39 79.0983 12.7283 81.775 15.405C84.4517 18.0817 85.79 21.345 85.79 25.195C85.79 29.0083 84.4517 32.2533 81.775 34.93ZM77.925 19.255C76.2017 17.6417 74.2217 16.835 71.985 16.835C69.675 16.835 67.7133 17.6417 66.1 19.255C64.45 20.905 63.625 22.885 63.625 25.195C63.625 27.4683 64.45 29.43 66.1 31.08C67.7133 32.73 69.675 33.555 71.985 33.555C74.295 33.555 76.275 32.73 77.925 31.08C79.5383 29.3567 80.345 27.395 80.345 25.195C80.345 22.9583 79.5383 20.9783 77.925 19.255ZM116.62 36.25C116.62 37.02 116.363 37.6617 115.85 38.175C115.3 38.725 114.64 39 113.87 39C113.137 39 112.495 38.725 111.945 38.175C111.432 37.6617 111.175 37.02 111.175 36.25V25.195C111.175 22.9583 110.368 20.9783 108.755 19.255C107.032 17.6417 105.052 16.835 102.815 16.835C100.505 16.835 98.5434 17.6417 96.9301 19.255C95.2801 20.905 94.4551 22.885 94.4551 25.195V36.25C94.4551 37.02 94.1984 37.6617 93.6851 38.175C93.1351 38.725 92.4751 39 91.7051 39C90.9717 39 90.3301 38.725 89.7801 38.175C89.2667 37.6617 89.0101 37.02 89.0101 36.25V25.195C89.0101 21.3817 90.3667 18.1183 93.0801 15.405C95.7567 12.7283 99.0017 11.39 102.815 11.39C106.628 11.39 109.873 12.7283 112.55 15.405C115.263 18.1183 116.62 21.3817 116.62 25.195V36.25Z" fill="white" />
</svg>