<svg width="388" height="501" viewBox="0 0 388 501" fill="none" xmlns="http://www.w3.org/2000/svg">
    <path d="M117.431 309.394C128.271 317.833 131.397 332.001 126.707 343.773C131.502 332.001 128.271 317.833 117.431 309.394L87.8314 286.475L55.626 318.458L0.908102 232.719C-2.42708 227.406 4.13907 221.468 9.03762 225.322L117.431 309.394Z" fill="#D6E1FE" />
    <path d="M56.1464 317.624L1.42849 231.885C0.0735744 229.697 0.28203 227.405 1.53272 225.738L73.4477 300.33L56.1464 317.624Z" fill="#91A2C6" />
    <path d="M117.431 309.498C128.271 317.833 131.502 332.105 126.707 343.877C126.395 344.607 126.082 345.336 125.665 346.065C125.561 346.273 125.457 346.482 125.352 346.794C125.04 347.419 124.623 348.044 124.206 348.565C123.998 348.878 123.789 349.19 123.581 349.503C123.372 349.815 123.06 350.128 122.851 350.44C122.434 350.961 122.017 351.587 121.6 352.107C121.496 352.212 121.496 352.212 121.392 352.316C120.662 353.045 119.933 353.878 119.203 354.503C118.474 355.233 117.64 355.754 116.91 356.379C116.702 356.587 116.389 356.691 116.181 356.9C115.555 357.316 115.034 357.733 114.409 358.046C114.096 358.254 113.888 358.358 113.575 358.462C112.95 358.879 112.22 359.192 111.491 359.504C111.282 359.608 111.074 359.712 110.865 359.817C109.927 360.233 108.989 360.546 108.051 360.858C107.947 360.858 107.843 360.858 107.739 360.963C106.905 361.171 106.071 361.379 105.237 361.588C105.029 361.588 104.716 361.692 104.508 361.692C103.778 361.796 103.048 361.9 102.319 362.004C102.11 362.004 101.798 362.004 101.589 362.109C100.651 362.213 99.8175 362.213 98.8795 362.213C98.7752 362.213 98.7752 362.213 98.671 362.213C97.733 362.213 96.6907 362.109 95.7527 362.004C95.5443 362.004 95.3358 361.9 95.2316 361.9C94.502 361.796 93.6682 361.692 92.9386 361.483C92.7302 361.379 92.4175 361.379 92.2091 361.275C91.4795 361.067 90.7499 360.858 90.1246 360.65C89.9161 360.546 89.7077 360.546 89.4992 360.442C88.5612 360.129 87.7274 359.712 86.7894 359.296C85.9556 358.879 85.1218 358.462 84.288 357.941C84.0796 357.837 83.7669 357.629 83.5584 357.42C83.2458 357.212 82.9331 357.004 82.6204 356.795C82.412 356.587 82.2035 356.483 81.9951 356.275C81.6824 356.066 81.3697 355.754 81.057 355.545C80.5359 355.129 80.119 354.712 79.5979 354.295C79.2852 354.087 79.0768 353.774 78.7641 353.566C78.243 353.045 77.7219 352.524 77.305 351.899C77.0965 351.691 76.8881 351.482 76.7838 351.274C76.1585 350.44 75.5331 349.607 74.9078 348.669L55.7305 318.666L87.9359 286.683L117.431 309.498Z" fill="#121544" />
    <path d="M387.999 330.855C388.103 317.207 378.827 305.852 366.633 302.414C378.932 305.852 388.103 317.207 387.999 330.855L387.791 368.255L342.766 373.881L376.534 469.829C378.619 475.767 387.374 474.309 387.374 467.954L387.999 330.855Z" fill="#D6E1FE" />
    <path d="M250.136 500.835H207.613C154.145 500.835 110.371 457.08 110.371 403.636V328.94C110.371 305.708 129.34 286.748 152.582 286.748H304.229C327.471 286.748 346.44 305.708 346.44 328.94V404.574C346.44 457.601 303.082 500.835 250.136 500.835Z" fill="#D6E1FE" />
    <path opacity="0.69" d="M343.911 346.586V377.631C343.911 442.222 291.069 495.041 226.45 495.041C161.205 495.041 107.738 441.701 107.738 376.381V346.586H343.911Z" fill="#91A2C6" />
    <path d="M343.703 374.089L377.472 470.037C378.306 472.433 380.286 473.683 382.37 473.683L367.987 371.067L343.703 374.089Z" fill="#91A2C6" />
    <path d="M387.999 330.855C388.103 317.207 378.931 305.852 366.633 302.414C365.903 302.206 365.069 301.997 364.236 301.893C364.027 301.893 363.714 301.789 363.506 301.685C362.776 301.58 362.151 301.476 361.421 301.476C361.005 301.476 360.692 301.372 360.275 301.372C359.858 301.372 359.441 301.372 359.024 301.372C358.295 301.372 357.669 301.372 356.94 301.372C356.836 301.372 356.731 301.372 356.731 301.372C355.689 301.476 354.647 301.58 353.605 301.685C353.605 301.685 353.605 301.685 353.5 301.685C352.458 301.893 351.52 302.101 350.582 302.31C350.269 302.414 349.957 302.518 349.748 302.622C349.019 302.831 348.393 303.039 347.664 303.351C347.351 303.456 347.038 303.56 346.83 303.664C346.1 303.977 345.475 304.289 344.746 304.706C344.537 304.81 344.329 304.914 344.12 305.018C343.286 305.539 342.453 306.06 341.619 306.581C341.515 306.685 341.41 306.685 341.41 306.789C340.681 307.31 340.055 307.831 339.43 308.352C339.222 308.56 339.013 308.665 338.909 308.873C338.388 309.394 337.867 309.915 337.346 310.436C337.137 310.644 337.033 310.748 336.824 310.957C336.199 311.582 335.678 312.311 335.157 313.04L335.053 313.144C334.427 313.978 333.906 314.707 333.385 315.54C333.281 315.749 333.177 315.853 333.072 316.061C332.656 316.686 332.343 317.416 332.03 318.145C331.926 318.353 331.822 318.666 331.717 318.874C331.405 319.499 331.196 320.228 330.884 320.958C330.779 321.166 330.675 321.374 330.675 321.583C330.363 322.52 330.154 323.458 329.946 324.396C329.737 325.333 329.633 326.271 329.529 327.208C329.529 327.521 329.425 327.833 329.425 328.042C329.425 328.459 329.32 328.771 329.32 329.188C329.32 329.5 329.32 329.709 329.32 330.021C329.32 330.438 329.32 330.855 329.32 331.167C329.32 331.792 329.425 332.417 329.425 333.042C329.425 333.459 329.529 333.772 329.529 334.188C329.633 334.918 329.737 335.647 329.946 336.376C330.05 336.689 330.05 336.897 330.154 337.21C330.363 338.251 330.675 339.293 330.988 340.231L342.765 373.88L387.79 368.255L387.999 330.855Z" fill="#121544" />
    <path d="M228.325 479.101H203.207C163.081 479.101 130.562 446.597 130.562 406.488V385.444C130.562 370.546 142.653 358.357 157.661 358.357H268.035C284.398 358.357 297.739 371.692 297.739 388.048V409.822C297.739 448.055 266.68 479.101 228.325 479.101Z" fill="#121544" />
    <path d="M379.973 212.716C379.973 141.562 322.337 83.9507 251.36 83.9507H196.121C125.456 83.9507 68.1328 141.353 68.1328 212.091V220.633H380.077V212.716H379.973Z" fill="#D6E1FE" />
    <path opacity="0.69" d="M379.972 220.633H68.0273V232.093C68.0273 265.847 95.3342 293.142 129.103 293.142H319.625C352.977 293.142 380.076 266.055 380.076 232.718L379.972 220.633Z" fill="#91A2C6" />
    <path d="M279.189 257.93H139.736C115.556 257.93 96.0664 238.345 96.0664 214.28V183.443C96.0664 132.603 137.339 91.3486 188.201 91.3486H229.787C280.961 91.3486 322.442 132.812 322.442 183.964V214.8C322.442 238.657 303.056 257.93 279.189 257.93Z" fill="#121544" />
    <path opacity="0.39" d="M256.885 175.212L279.606 181.775C285.756 183.547 287.111 191.36 281.795 194.902C276.792 198.236 270.122 198.861 261.68 198.548C247.714 198.132 219.052 197.298 214.674 181.775C209.255 162.607 232.288 157.814 252.821 147.396C258.657 144.479 263.764 142.917 268.35 143.021C279.189 143.229 282.42 156.773 273.04 162.19L256.468 171.67C255.009 172.608 255.218 174.691 256.885 175.212Z" fill="#69F9A7" />
    <path opacity="0.51" d="M253.029 347.002H171.838C167.356 347.002 163.812 343.356 163.812 338.98V335.438C163.812 330.959 167.46 327.417 171.838 327.417H253.029C257.51 327.417 261.054 331.063 261.054 335.438V338.98C261.054 343.356 257.406 347.002 253.029 347.002Z" fill="#69F9A7" />
    <path fill-rule="evenodd" clip-rule="evenodd" d="M95.543 116.246C97.7317 80.513 103.256 24.6732 114.199 15.4013C164.852 -8.97652 292.111 -3.14253 343.702 23.9439C353.603 29.0487 359.648 93.327 358.397 129.164C341.617 112.6 317.437 100.515 289.922 93.1186C270.119 87.8055 248.44 84.6801 226.553 84.0551C204.562 83.43 182.466 85.0969 162.142 89.264C136.816 94.2646 113.678 103.224 95.543 116.246Z" fill="#121544" />
    <path fill-rule="evenodd" clip-rule="evenodd" d="M96.2729 102.078C114.304 90.8266 137.442 83.0132 162.768 78.6377C183.092 75.0956 205.188 73.6371 227.179 74.3664C249.066 75.0956 270.849 77.8043 290.548 82.5965C318.063 89.264 342.243 99.8902 359.127 114.475C359.023 119.58 358.293 139.686 357.772 144.062C314.102 72.1787 158.912 61.4482 94.918 130.831C95.1264 126.768 95.9602 106.453 96.2729 102.078Z" fill="#F3F7FF" />
    <path d="M214.569 67.4905C211.025 67.3864 208.211 64.1568 208.315 60.4064C208.42 56.6559 211.442 53.6348 215.09 53.7389C218.738 53.8431 221.448 57.0727 221.343 60.8231C221.239 64.5735 218.217 67.5947 214.569 67.4905ZM214.986 57.0727C213.11 56.9685 211.65 58.5312 211.546 60.5106C211.442 62.49 212.901 64.0526 214.777 64.1568C216.653 64.261 218.112 62.6983 218.217 60.7189C218.217 58.7395 216.862 57.0727 214.986 57.0727Z" fill="#F3F7FF" />
    <path d="M235.1 67.4905C231.556 67.3864 228.742 64.1568 228.847 60.4064C228.951 56.6559 231.973 53.6348 235.621 53.7389C239.165 53.8431 241.979 57.0727 241.875 60.8231C241.666 64.5735 238.644 67.5947 235.1 67.4905ZM235.413 57.0727C233.537 56.9685 232.078 58.5312 231.973 60.5106C231.869 62.49 233.328 64.0526 235.204 64.1568C237.08 64.261 238.539 62.6983 238.644 60.7189C238.748 58.7395 237.289 57.0727 235.413 57.0727Z" fill="#F3F7FF" />
    <path fill-rule="evenodd" clip-rule="evenodd" d="M199.457 44.0503C206.44 37.1745 215.82 33.1115 226.034 33.424C236.248 33.7366 245.316 38.5288 251.778 45.8213C255.009 49.4676 257.51 53.8431 259.282 58.5311C261.887 54.6765 265.223 51.447 268.87 48.9467C276.583 43.6335 286.172 41.3416 295.865 43.4252L296.281 43.5294C306.079 45.7171 314.208 51.9678 319.211 60.3021C322.233 65.3027 324.214 71.1367 324.839 77.2833C327.445 75.1997 330.154 73.4287 333.177 72.0744C339.43 69.2615 346.413 68.2197 353.292 69.3657C353.709 72.9078 354.022 76.554 354.335 80.2003C348.394 78.6376 342.349 79.1585 336.929 81.6588C331.301 84.1591 326.402 88.7429 323.38 94.8895C320.253 93.5352 317.022 92.1809 313.791 90.9307C314.208 89.7847 314.521 88.6388 314.729 87.4928C316.293 79.7836 314.833 72.1785 311.081 66.032C307.433 59.9896 301.493 55.4058 294.301 53.7389H294.197C286.901 52.072 279.814 53.7389 273.977 57.6977C268.245 61.6565 263.868 67.9072 262.304 75.6164V75.7206C262.2 76.4499 261.992 77.1791 261.887 77.9084C258.448 77.3875 255.009 76.9707 251.465 76.554V76.1373V75.7206V75.3039V74.8872V74.4705V74.0537V73.637V73.3245V73.012V72.6994V72.3869L251.361 71.6576V71.3451V71.0326L251.256 70.72L251.152 70.4075L251.048 70.095L250.944 69.7824L250.84 69.4699C249.902 64.7818 247.817 60.5105 245.003 57.0726L244.795 56.7601L244.378 56.2392L244.169 56.0308C239.375 50.6135 232.704 47.1756 225.2 46.8631C217.696 46.5506 210.713 49.5717 205.606 54.6765L205.398 54.8849L204.981 55.4058L204.772 55.6141C201.75 58.9478 199.457 63.0108 198.102 67.5947L197.998 67.9072L197.893 68.2197L197.789 68.5323L197.685 68.8448L197.581 69.1573L197.477 69.4699L197.372 69.7824L197.268 70.5117L197.164 70.8242L197.06 71.1368V71.4493V71.7618V72.0744V72.4911V72.9078V73.3245V73.7412V74.1579V74.5746C193.516 74.783 190.077 74.9914 186.533 75.1997C186.533 74.4705 186.429 73.7412 186.325 72.9078V72.8036C185.282 65.0944 181.426 58.5311 176.006 54.1556C170.587 49.7801 163.499 47.6965 156.204 48.8425H156.099C148.804 49.9884 142.654 54.1556 138.485 59.8854C134.316 65.7194 132.336 73.2203 133.378 81.0337C133.587 82.2839 133.795 83.4298 134.108 84.5758C130.773 85.6176 127.438 86.6594 124.207 87.9095C121.601 81.6588 117.119 76.7624 111.595 73.8454C106.384 71.0325 100.339 69.9908 94.3984 71.2409C94.9196 67.6988 95.5449 64.0526 96.1703 60.5105C103.153 59.8854 110.032 61.3439 116.077 64.5735C118.891 66.1362 121.601 68.0114 123.998 70.3033C125.04 64.2609 127.438 58.6353 130.773 53.7389C136.401 45.8213 144.843 40.0915 154.849 38.5288L155.266 38.4246C165.063 37.0703 174.443 39.9873 181.843 45.8213C185.386 48.6341 188.409 52.072 190.806 56.135C193.099 51.5511 195.913 47.4882 199.457 44.0503Z" fill="#F3F7FF" />
    <path d="M280.857 74.7831C280.44 74.7831 280.128 74.679 279.711 74.679C276.271 73.8455 274.083 70.3034 274.812 66.553C275.542 62.9067 278.981 60.5106 282.42 61.3441C284.088 61.7608 285.547 62.8026 286.485 64.2611C287.423 65.8238 287.736 67.5948 287.319 69.3658C286.694 72.5954 283.88 74.8873 280.857 74.7831ZM281.17 64.4694C279.606 64.3652 278.252 65.5112 277.835 67.1781C277.418 69.0533 278.564 70.9285 280.336 71.241C282.108 71.6578 283.775 70.4076 284.192 68.5324C284.609 66.6572 283.463 64.8861 281.691 64.4694C281.587 64.4694 281.378 64.4694 281.17 64.4694Z" fill="#F3F7FF" />
    <path d="M300.449 80.2009C300.032 80.2009 299.719 80.0967 299.302 80.0967C297.635 79.68 296.176 78.6382 295.238 77.1797C294.3 75.617 293.987 73.846 294.404 72.075C295.133 68.4287 298.573 66.0326 302.012 66.866C305.452 67.5953 307.64 71.2415 306.911 74.992C306.285 78.0131 303.471 80.3051 300.449 80.2009ZM300.762 69.8872C299.198 69.783 297.843 70.929 297.426 72.5959C297.218 73.5335 297.426 74.4711 297.843 75.2003C298.364 75.9296 298.99 76.5546 299.928 76.6588C301.7 77.0755 303.367 75.8254 303.784 73.9502C304.201 72.075 303.054 70.1997 301.283 69.8872C301.178 69.8872 300.97 69.8872 300.762 69.8872Z" fill="#F3F7FF" />
    <path d="M342.973 99.5779C342.244 99.5779 341.514 99.3696 340.785 99.057C337.45 97.5985 335.886 93.6397 337.241 90.0977C338.596 86.5556 342.348 84.8887 345.683 86.2431C347.247 86.9723 348.497 88.2224 349.227 89.9935C349.852 91.6603 349.957 93.5356 349.227 95.3066C348.602 96.9735 347.351 98.3278 345.683 99.057C344.85 99.4738 343.912 99.5779 342.973 99.5779ZM343.39 89.1601C342.035 89.1601 340.681 89.9935 340.159 91.3478C339.43 93.1189 340.264 95.2024 341.931 95.9317C342.765 96.2442 343.703 96.2442 344.433 95.9317C345.266 95.515 345.892 94.8899 346.204 93.9523C346.517 93.0147 346.517 92.0771 346.204 91.2436C345.892 90.4102 345.266 89.681 344.433 89.3684C344.12 89.2642 343.703 89.1601 343.39 89.1601Z" fill="#F3F7FF" />
    <path d="M168.397 70.8246C167.146 70.8246 165.791 70.3038 164.749 69.4703C163.394 68.4285 162.456 66.7617 162.247 64.9906C162.039 63.2196 162.456 61.3444 163.498 59.8859C164.54 58.4274 165.999 57.4897 167.771 57.1772C171.315 56.6563 174.546 59.2608 175.067 62.907C175.588 66.6575 173.087 70.0954 169.647 70.6163C169.126 70.8247 168.814 70.8246 168.397 70.8246ZM168.188 60.6151C166.416 60.9277 165.166 62.5945 165.374 64.5739C165.583 66.4491 167.25 67.8035 169.022 67.4909C170.794 67.1784 172.045 65.5115 171.836 63.5321C171.628 61.6569 169.96 60.3026 168.188 60.6151Z" fill="#F3F7FF" />
    <path d="M148.386 74.8869C145.364 74.7828 142.758 72.3867 142.237 69.053C141.716 65.3025 144.217 61.8646 147.656 61.3437C151.096 60.8228 154.431 63.4273 154.848 67.0735C155.369 70.824 152.868 74.2619 149.428 74.7828C149.22 74.887 148.803 74.8869 148.386 74.8869ZM148.803 64.5733C148.594 64.5733 148.386 64.5733 148.282 64.5733C146.51 64.8858 145.259 66.5527 145.468 68.5321C145.676 70.4073 147.344 71.7616 149.116 71.4491C150.887 71.1365 152.138 69.4697 151.93 67.4903C151.721 65.9276 150.366 64.6774 148.803 64.5733Z" fill="#F3F7FF" />
    <path d="M104.61 91.2434C103.672 91.2434 102.734 90.9308 101.9 90.5141C100.336 89.6807 99.19 88.2222 98.6689 86.5553C97.5224 82.9091 99.3985 79.0545 102.838 77.8043C106.277 76.6584 109.925 78.5336 111.072 82.1798C112.218 85.8261 110.342 89.6807 106.903 90.9308C106.173 91.1392 105.339 91.3475 104.61 91.2434ZM105.027 80.8255C104.61 80.8255 104.297 80.8255 103.88 81.0339C102.108 81.6589 101.17 83.6383 101.796 85.5135C102.108 86.4511 102.629 87.1804 103.463 87.5971C104.297 88.0138 105.131 88.118 105.965 87.8055C107.736 87.1804 108.674 85.201 108.049 83.3258C107.632 81.8673 106.382 80.9297 105.027 80.8255Z" fill="#F3F7FF" />
    <path d="M273.14 150.417L224.988 176.566L275.016 193.234" stroke="#EAE4F4" stroke-width="8" stroke-miterlimit="10" stroke-linecap="round" stroke-linejoin="round" />
    <path d="M226.45 222.925C227.493 221.884 226.346 220.113 225.2 220.738C218.217 224.384 207.169 229.176 198.622 229.385C189.868 229.593 178.09 224.697 170.795 221.154C169.544 220.529 168.502 222.405 169.544 223.342C176.214 229.697 187.783 239.177 198.101 239.073C208.315 239.073 219.78 229.489 226.45 222.925Z" fill="#DFE7F4" />
    <ellipse cx="154.5" cy="169.5" rx="31.5" ry="36.5" fill="#69F9A7" />
</svg>
    