<svg width="193" height="186" viewBox="0 0 193 186" fill="none" xmlns="http://www.w3.org/2000/svg">
<path d="M191.883 69.4151C188.893 60.202 180.717 54.2516 171.042 54.2516H130.017L117.342 15.1709C114.351 5.9578 106.172 0 96.5006 0C86.8295 0 78.6495 5.95401 75.6597 15.1672L62.9839 54.2479H21.9594C12.2882 54.2479 4.10827 60.2019 1.11845 69.4114C-1.87174 78.6246 1.25207 88.254 9.07421 93.9509L42.2655 118.103L29.5897 157.184C26.5995 166.397 29.727 176.033 37.5527 181.727C41.4638 184.574 45.9454 185.995 50.4309 185.995C54.9126 185.995 59.3978 184.57 63.3092 181.727L96.5005 157.575L129.692 181.731C137.521 187.428 147.629 187.417 155.447 181.734C163.273 176.041 166.397 166.408 163.41 157.191L150.734 118.111L183.926 93.9582C191.748 88.2574 194.872 78.628 191.882 69.415L191.883 69.4151ZM173.631 79.7606L139.215 104.807C133.795 108.753 131.541 115.698 133.61 122.086L146.752 162.61C147.644 165.36 145.932 166.973 145.156 167.537C144.372 168.101 142.317 169.23 139.988 167.533L105.569 142.484C100.149 138.552 92.8647 138.541 87.4259 142.487L53.0096 167.533C50.6768 169.233 48.6183 168.098 47.8419 167.537C47.069 166.973 45.3537 165.359 46.2456 162.61L59.3874 122.086C61.4567 115.698 59.2032 108.753 53.7826 104.806L19.3664 79.7605C17.0335 78.064 17.474 75.749 17.7665 74.8338C18.0663 73.9186 19.0665 71.788 21.952 71.788H64.4899C71.1925 71.788 77.0899 67.498 79.1626 61.1101L92.3117 20.5858C93.211 17.8404 95.5403 17.5437 96.5008 17.5437C97.4614 17.5437 99.7943 17.8403 100.683 20.5894L113.832 61.1138C115.905 67.5018 121.802 71.7917 128.504 71.7917H171.042C173.928 71.7917 174.928 73.9186 175.228 74.8374C175.524 75.7526 175.965 78.064 173.632 79.7605L173.631 79.7606Z" fill="#737373"/>
<ellipse cx="96.5" cy="57" rx="28.5" ry="44" fill="#737373"/>
<ellipse cx="135" cy="83.5" rx="27.5" ry="44" transform="rotate(-90 135 83.5)" fill="#737373"/>
<ellipse cx="122.682" cy="133.355" rx="28.5" ry="44" transform="rotate(-30 122.682 133.355)" fill="#737373"/>
<ellipse cx="68.424" cy="133.922" rx="28.5" ry="44" transform="rotate(25 68.424 133.922)" fill="#737373"/>
<ellipse cx="59.0941" cy="88.8301" rx="28.5" ry="44" transform="rotate(-70 59.0941 88.8301)" fill="#737373"/>
</svg>
