<svg width="194" height="186" viewBox="0 0 194 186" fill="none" xmlns="http://www.w3.org/2000/svg">
<path d="M192.877 69.4151C189.871 60.202 181.653 54.2516 171.928 54.2516H130.691L117.95 15.1709C114.944 5.9578 106.722 0 97.0006 0C87.2794 0 79.057 5.95401 76.0517 15.1672L63.3103 54.2479H22.0732C12.3519 54.2479 4.12956 60.2019 1.12425 69.4114C-1.88144 78.6245 1.25855 88.254 9.12122 93.9509L42.4845 118.103L29.743 157.184C26.7374 166.397 29.881 176.033 37.7473 181.727C41.6786 184.574 46.1834 185.995 50.6922 185.995C55.1971 185.995 59.7056 184.57 63.6372 181.727L97.0005 157.575L130.364 181.731C138.234 187.428 148.394 187.417 156.253 181.734C164.119 176.041 167.259 166.408 164.257 157.191L151.515 118.111L184.879 93.9582C192.741 88.2574 195.882 78.628 192.876 69.415L192.877 69.4151ZM174.531 79.7606L139.936 104.807C134.488 108.753 132.223 115.698 134.303 122.086L147.512 162.61C148.409 165.36 146.688 166.973 145.908 167.537C145.12 168.101 143.055 169.23 140.713 167.533L106.116 142.484C100.667 138.552 93.3458 138.541 87.8788 142.487L53.2843 167.533C50.9393 169.233 48.8702 168.098 48.0898 167.537C47.3129 166.973 45.5887 165.359 46.4853 162.61L59.6951 122.086C61.7751 115.698 59.5099 108.753 54.0613 104.806L19.4667 79.7605C17.1217 78.064 17.5646 75.749 17.8586 74.8338C18.1599 73.9186 19.1653 71.788 22.0657 71.788H64.8241C71.5614 71.788 77.4893 67.498 79.5728 61.1101L92.79 20.5858C93.6939 17.8404 96.0353 17.5437 97.0008 17.5437C97.9664 17.5437 100.311 17.8403 101.204 20.5894L114.422 61.1138C116.505 67.5018 122.433 71.7917 129.17 71.7917H171.929C174.829 71.7917 175.835 73.9186 176.136 74.8374C176.433 75.7526 176.876 78.064 174.531 79.7605L174.531 79.7606Z" fill="#737373"/>
</svg>
